<svg height="1" viewBox="0 0 607.455522 606.993078" xmlns="http://www.w3.org/2000/svg" xmlns:xlink="http://www.w3.org/1999/xlink"><defs><path id="a" d="m0 0h606v606h-606z"/><path id="b" d="m39.490566 39.5652174v129.9139126h122.080528v-129.9139126zm161.571094 149.1334786c0 11.208676-9.119736 20.345652-20.307264 20.345652h-160.4471318c-11.16960824 0-20.3072642-9.121998-20.3072642-20.345652v-168.3530438c0-11.20563312 9.12277376-20.3456522 20.3072642-20.3456522h160.4471318c1.231816.01977015 1.231816.01977015 2.505397.12979324 4.120897.458743 8.123056 1.90224371 11.94836 5.73477913 3.825304 3.83253543 5.266082 7.84225963 5.723959 11.97094663.109816 1.2759893.109816 1.2759893.12434 1.9206422.003756.2922425.005492 56.6064207.005208 168.9425348zm69.612755-91.2130438-52.546755-80.7982609c-.841452-.846087-.841452-1.6891304-.561981-2.8152174.28251-1.4091304 1.685944-2.8152174 3.371887-3.3782609l26.133642-9.29173909c2.809905-.84304347 6.181792.28304348 7.588264 2.25217392l63.783339 98.53565217.28251.28c.841453 1.126087.841453 2.535217 0 3.661304l-64.065849 98.815653c-1.685944 2.252173-4.778359 3.37826-7.588264 2.252173l-26.695623-9.008695c-1.403434-.563044-2.527396-1.409131-3.089377-2.815218-.28251-.563043-.561982-1.972174.279471-3.37826l53.108736-80.518261c3.092415-4.221305 3.092415-9.851739 0-13.7930438z"/><mask id="c" fill="#fff"><use fill="none" xlink:href="#a"/></mask><mask id="d" fill="#fff"><use fill="none" xlink:href="#b"/></mask></defs><g fill="none" fill-rule="evenodd"><use fill="#101010" xlink:href="#a"/><g fill="#101010" mask="url(#c)"><path d="m0 0h645v648h-645z" transform="translate(-12.12 -9.09)"/></g><g transform="translate(142 200)"><use fill="#fff" fill-rule="nonzero" xlink:href="#b"/><g fill="#fff" mask="url(#d)"><path d="m0 0h346v347h-346z" transform="translate(-12.150943 -70)"/></g></g></g></svg>
