<?xml version="1.0" encoding="utf-8"?>
<!-- Generator: Adobe Illustrator 22.1.0, SVG Export Plug-In . SVG Version: 6.00 Build 0)  -->
<svg version="1.1" id="Layer_1" xmlns="http://www.w3.org/2000/svg" xmlns:xlink="http://www.w3.org/1999/xlink" x="0px" y="0px"
	 viewBox="0 0 476 299" style="enable-background:new 0 0 476 299;" xml:space="preserve">
<style type="text/css">
	.st0{fill:url(#SVGID_1_);}
	.st1{fill:url(#SVGID_2_);}
	.st2{fill:url(#SVGID_3_);}
	.st3{fill:url(#SVGID_4_);}
	.st4{fill:url(#SVGID_5_);}
	.st5{fill:url(#SVGID_6_);}
	.st6{fill:url(#SVGID_7_);}
	.st7{fill:url(#SVGID_8_);}
	.st8{fill:url(#SVGID_9_);}
	.st9{fill:url(#SVGID_10_);}
	.st10{fill:url(#SVGID_11_);}
	.st11{fill:url(#SVGID_12_);}
	.st12{fill:url(#SVGID_13_);}
	.st13{fill:url(#SVGID_14_);}
	.st14{fill:url(#SVGID_15_);}
	.st15{fill:url(#SVGID_16_);}
	.st16{fill:url(#SVGID_17_);}
	.st17{fill:url(#SVGID_18_);}
	.st18{fill:url(#SVGID_19_);}
	.st19{fill:url(#SVGID_20_);}
	.st20{fill:url(#SVGID_21_);}
	.st21{fill:url(#SVGID_22_);}
	.st22{fill:url(#SVGID_23_);}
	.st23{fill:url(#SVGID_24_);}
	.st24{fill:url(#SVGID_25_);}
	.st25{fill:url(#SVGID_26_);}
</style>
<linearGradient id="SVGID_1_" gradientUnits="userSpaceOnUse" x1="14.1259" y1="152.9448" x2="463.8739" y2="152.9448">
	<stop  offset="0.3823" style="stop-color:#B3B9C9"/>
	<stop  offset="0.576" style="stop-color:#F0F1F3"/>
</linearGradient>
<path class="st0" d="M463.9,152.9C463.9,152.9,463.9,152.9,463.9,152.9v-7h-3.6c-0.8-0.7-1.8-1.4-2.9-2.1L254,26.4
	c-8.7-5-22.7-5-31.3,0L20.6,143.9c-1.1,0.6-2.1,1.3-2.9,2.1h-3.6v7h0c0,3.3,2.2,6.6,6.5,9.1L224,279.4c8.7,5,22.7,5,31.3,0
	L457.4,162C461.7,159.5,463.9,156.2,463.9,152.9L463.9,152.9L463.9,152.9z"/>
<g>
	<linearGradient id="SVGID_2_" gradientUnits="userSpaceOnUse" x1="14.126" y1="145.9448" x2="463.8741" y2="145.9448">
		<stop  offset="0" style="stop-color:#D5D7E0"/>
		<stop  offset="1" style="stop-color:#E7E9F3"/>
	</linearGradient>
	<path class="st1" d="M457.3,136.9c8.7,5,8.7,13.1,0.1,18.2L255.4,272.4c-8.6,5-22.7,5-31.3,0L20.7,155c-8.7-5-8.7-13.1-0.1-18.2
		L222.6,19.4c8.6-5,22.7-5,31.3,0L457.3,136.9z"/>
</g>
<g>
	<linearGradient id="SVGID_3_" gradientUnits="userSpaceOnUse" x1="269.2213" y1="64.6469" x2="297.0551" y2="112.8563">
		<stop  offset="0" style="stop-color:#584BDB"/>
		<stop  offset="1" style="stop-color:#58CADB"/>
	</linearGradient>
	<path class="st2" d="M312.1,104.2L258.2,73l-1.7-1l-2.3,1.3l1.7,1l53.9,31.1C310.6,105,311.4,104.6,312.1,104.2z"/>
	<linearGradient id="SVGID_4_" gradientUnits="userSpaceOnUse" x1="262.2009" y1="68.7266" x2="289.9897" y2="116.8583">
		<stop  offset="0" style="stop-color:#584BDB"/>
		<stop  offset="1" style="stop-color:#58CADB"/>
	</linearGradient>
	<path class="st3" d="M305,108.2l-53.8-31.1l-1.7-1l-2.3,1.3l1.7,1l53.8,31.1C303.5,109.1,304.3,108.6,305,108.2z"/>
	<linearGradient id="SVGID_5_" gradientUnits="userSpaceOnUse" x1="255.1914" y1="72.8001" x2="282.9926" y2="120.9532">
		<stop  offset="0" style="stop-color:#584BDB"/>
		<stop  offset="1" style="stop-color:#58CADB"/>
	</linearGradient>
	<path class="st4" d="M298,112.2l-53.8-31.1l-1.7-1l-2.3,1.3l1.7,1l53.9,31.1C296.5,113.1,297.3,112.7,298,112.2z"/>
</g>
<g>
	<linearGradient id="SVGID_6_" gradientUnits="userSpaceOnUse" x1="190.2235" y1="166.8487" x2="218.0573" y2="215.0582">
		<stop  offset="0" style="stop-color:#584BDB"/>
		<stop  offset="1" style="stop-color:#58CADB"/>
	</linearGradient>
	<path class="st5" d="M233.1,206.4l-53.9-31.1l-1.7-1l-2.3,1.3l1.7,1l53.9,31.1C231.6,207.2,232.4,206.8,233.1,206.4z"/>
	<linearGradient id="SVGID_7_" gradientUnits="userSpaceOnUse" x1="183.2031" y1="170.9285" x2="210.9919" y2="219.0602">
		<stop  offset="0" style="stop-color:#584BDB"/>
		<stop  offset="1" style="stop-color:#58CADB"/>
	</linearGradient>
	<path class="st6" d="M226,210.4l-53.8-31.1l-1.7-1l-2.3,1.3l1.7,1l53.8,31.1C224.5,211.3,225.3,210.8,226,210.4z"/>
	<linearGradient id="SVGID_8_" gradientUnits="userSpaceOnUse" x1="176.1936" y1="175.0019" x2="203.9949" y2="223.1551">
		<stop  offset="0" style="stop-color:#584BDB"/>
		<stop  offset="1" style="stop-color:#58CADB"/>
	</linearGradient>
	<path class="st7" d="M219,214.4l-53.8-31.1l-1.7-1l-2.3,1.3l1.7,1l53.9,31.1C217.5,215.3,218.3,214.9,219,214.4z"/>
</g>
<g>
	
		<linearGradient id="SVGID_9_" gradientUnits="userSpaceOnUse" x1="240.3223" y1="138.9776" x2="268.1561" y2="187.187" gradientTransform="matrix(-1 0 0 1 573.5183 0)">
		<stop  offset="0" style="stop-color:#584BDB"/>
		<stop  offset="1" style="stop-color:#58CADB"/>
	</linearGradient>
	<path class="st8" d="M290.3,178.5l53.9-31.1l1.7-1l2.3,1.3l-1.7,1l-53.9,31.1C291.8,179.4,291.1,178.9,290.3,178.5z"/>
	
		<linearGradient id="SVGID_10_" gradientUnits="userSpaceOnUse" x1="233.3019" y1="143.0574" x2="261.0907" y2="191.189" gradientTransform="matrix(-1 0 0 1 573.5183 0)">
		<stop  offset="0" style="stop-color:#584BDB"/>
		<stop  offset="1" style="stop-color:#58CADB"/>
	</linearGradient>
	<path class="st9" d="M297.4,182.5l53.8-31.1l1.7-1l2.3,1.3l-1.7,1l-53.8,31.1C298.9,183.4,298.2,182.9,297.4,182.5z"/>
	
		<linearGradient id="SVGID_11_" gradientUnits="userSpaceOnUse" x1="226.2924" y1="147.1308" x2="254.0937" y2="195.2839" gradientTransform="matrix(-1 0 0 1 573.5183 0)">
		<stop  offset="0" style="stop-color:#584BDB"/>
		<stop  offset="1" style="stop-color:#58CADB"/>
	</linearGradient>
	<path class="st10" d="M304.4,186.6l53.8-31.1l1.7-1l2.3,1.3l-1.7,1l-53.9,31.1C305.9,187.5,305.2,187,304.4,186.6z"/>
</g>
<g>
	
		<linearGradient id="SVGID_12_" gradientUnits="userSpaceOnUse" x1="413.9616" y1="95.8566" x2="441.7954" y2="144.0661" gradientTransform="matrix(-1 0 0 1 573.5183 0)">
		<stop  offset="0" style="stop-color:#584BDB"/>
		<stop  offset="1" style="stop-color:#58CADB"/>
	</linearGradient>
	<path class="st11" d="M116.6,135.4l53.9-31.1l1.7-1l2.3,1.3l-1.7,1L119,136.7C118.2,136.2,117.4,135.8,116.6,135.4z"/>
	
		<linearGradient id="SVGID_13_" gradientUnits="userSpaceOnUse" x1="406.9412" y1="99.9364" x2="434.73" y2="148.0681" gradientTransform="matrix(-1 0 0 1 573.5183 0)">
		<stop  offset="0" style="stop-color:#584BDB"/>
		<stop  offset="1" style="stop-color:#58CADB"/>
	</linearGradient>
	<path class="st12" d="M123.7,139.4l53.8-31.1l1.7-1l2.3,1.3l-1.7,1l-53.8,31.1C125.3,140.3,124.5,139.8,123.7,139.4z"/>
	
		<linearGradient id="SVGID_14_" gradientUnits="userSpaceOnUse" x1="399.9317" y1="104.0098" x2="427.7329" y2="152.163" gradientTransform="matrix(-1 0 0 1 573.5183 0)">
		<stop  offset="0" style="stop-color:#584BDB"/>
		<stop  offset="1" style="stop-color:#58CADB"/>
	</linearGradient>
	<path class="st13" d="M130.8,143.4l53.8-31.1l1.7-1l2.3,1.3l-1.7,1L133,144.8C132.3,144.3,131.5,143.9,130.8,143.4z"/>
</g>
<g>
	<g>
		
			<linearGradient id="SVGID_15_" gradientUnits="userSpaceOnUse" x1="174.1754" y1="204.9162" x2="307.1751" y2="204.9162" gradientTransform="matrix(-1 0 0 1 503.8242 0)">
			<stop  offset="0.1663" style="stop-color:#ACB3CC"/>
			<stop  offset="0.5823" style="stop-color:#8D93A8"/>
			<stop  offset="0.7053" style="stop-color:#4A4E63"/>
		</linearGradient>
		<path class="st14" d="M197.7,213.4c0.1-0.2,3.3-0.9,8.5-2.1l74.1-43c3.7-2.1,9.6-2.1,13.3,0l31.5,18.2c2.3-0.5,3.6-0.7,3.6-0.7
			c1.3,2.1,1.1,4.5,0.3,6.4c-0.1,0.4-0.3,0.7-0.6,1.1c0,0,0,0,0,0c0,0,0,0,0,0c-0.5,0.6-1.1,1.2-2,1.7l-80.4,46.7
			c-3.7,2.1-9.6,2.1-13.3,0l-32.8-18.9c-1-0.6-1.7-1.2-2.1-1.9c0,0,0,0,0,0C195.8,218.2,196.8,214.4,197.7,213.4z"/>
		<g>
			
				<linearGradient id="SVGID_16_" gradientUnits="userSpaceOnUse" x1="174.6466" y1="201.26" x2="306.6799" y2="201.26" gradientTransform="matrix(-1 0 0 1 503.8242 0)">
				<stop  offset="0" style="stop-color:#434654"/>
				<stop  offset="1" style="stop-color:#1A1B24"/>
			</linearGradient>
			<path class="st15" d="M326.4,183.5c3.7,2.1,3.7,5.6,0,7.7l-80.4,46.7c-3.7,2.1-9.6,2.1-13.3,0L199.9,219c-3.7-2.1-3.7-5.6,0-7.7
				l80.4-46.7c3.7-2.1,9.6-2.1,13.3,0L326.4,183.5z"/>
		</g>
		<g>
			
				<linearGradient id="SVGID_17_" gradientUnits="userSpaceOnUse" x1="218.4618" y1="162.4263" x2="262.8637" y2="239.3327" gradientTransform="matrix(-1 0 0 1 503.8242 0)">
				<stop  offset="0" style="stop-color:#584BDB"/>
				<stop  offset="1" style="stop-color:#58CADB"/>
			</linearGradient>
			<path class="st16" d="M323.6,184.5c2.3,1.3,2.3,3.5,0,4.9L243.5,236c-2.3,1.3-6.1,1.3-8.4,0l-32.4-18.7c-2.3-1.3-2.3-3.5,0-4.9
				l80.2-46.6c2.3-1.3,6.1-1.3,8.4,0l3.8,2.2c0.5,0.3,0.5,0.8,0,1.1l-0.7,0.4c-0.9,0.5-0.9,1.3,0,1.8l19.6,11.3
				c0.9,0.5,2.3,0.5,3.1,0l0.7-0.4c0.5-0.3,1.4-0.3,1.9,0L323.6,184.5z"/>
		</g>
	</g>
	<g>
		<linearGradient id="SVGID_18_" gradientUnits="userSpaceOnUse" x1="69.793" y1="159.3742" x2="202.7927" y2="159.3742">
			<stop  offset="0.614" style="stop-color:#4A4E63"/>
			<stop  offset="0.7878" style="stop-color:#8D93A8"/>
			<stop  offset="1" style="stop-color:#ACB3CC"/>
		</linearGradient>
		<path class="st17" d="M201.8,167.8c-0.1-0.2-3.3-0.9-8.5-2.1l-74.1-43c-3.7-2.1-9.6-2.1-13.3,0l-31.5,18.2
			c-2.3-0.5-3.6-0.7-3.6-0.7c-1.3,2.1-1.1,4.5-0.3,6.4c0.1,0.4,0.3,0.7,0.6,1.1c0,0,0,0,0,0c0,0,0,0,0,0c0.5,0.6,1.1,1.2,2,1.7
			l80.4,46.7c3.7,2.1,9.6,2.1,13.3,0l32.8-18.9c1-0.6,1.7-1.2,2.1-1.9c0,0,0,0,0,0C203.6,172.7,202.6,168.9,201.8,167.8z"/>
		<g>
			<linearGradient id="SVGID_19_" gradientUnits="userSpaceOnUse" x1="70.2643" y1="155.718" x2="202.2976" y2="155.718">
				<stop  offset="0" style="stop-color:#1A1B24"/>
				<stop  offset="1" style="stop-color:#434654"/>
			</linearGradient>
			<path class="st18" d="M105.9,119c3.7-2.1,9.7-2.1,13.3,0l80.4,46.7c3.7,2.1,3.7,5.6,0,7.7l-32.8,18.9c-3.7,2.1-9.7,2.1-13.3,0
				L73,145.7c-3.7-2.1-3.7-5.6,0-7.7L105.9,119z"/>
		</g>
		<g>
			<linearGradient id="SVGID_20_" gradientUnits="userSpaceOnUse" x1="114.0794" y1="116.8843" x2="158.4813" y2="193.7906">
				<stop  offset="0" style="stop-color:#584BDB"/>
				<stop  offset="1" style="stop-color:#58CADB"/>
			</linearGradient>
			<path class="st19" d="M75.8,139c-2.3,1.3-2.3,3.5,0,4.9l80.2,46.6c2.3,1.3,6.1,1.3,8.4,0l32.4-18.7c2.3-1.3,2.3-3.5,0-4.9
				l-80.2-46.6c-2.3-1.3-6.1-1.3-8.4,0l-3.8,2.2c-0.5,0.3-0.5,0.8,0,1.1l0.7,0.4c0.9,0.5,0.9,1.3,0,1.8l-19.6,11.3
				c-0.9,0.5-2.3,0.5-3.1,0l-0.7-0.4c-0.5-0.3-1.4-0.3-1.9,0L75.8,139z"/>
		</g>
	</g>
	<g>
		<linearGradient id="SVGID_21_" gradientUnits="userSpaceOnUse" x1="274.7443" y1="131.5031" x2="407.744" y2="131.5031">
			<stop  offset="0.614" style="stop-color:#4A4E63"/>
			<stop  offset="0.7878" style="stop-color:#8D93A8"/>
			<stop  offset="1" style="stop-color:#ACB3CC"/>
		</linearGradient>
		<path class="st20" d="M406.7,140c-0.1-0.2-3.3-0.9-8.5-2.1l-74.1-43c-3.7-2.1-9.6-2.1-13.3,0L279.3,113c-2.3-0.5-3.6-0.7-3.6-0.7
			c-1.3,2.1-1.1,4.5-0.3,6.4c0.1,0.4,0.3,0.7,0.6,1.1c0,0,0,0,0,0c0,0,0,0,0,0c0.5,0.6,1.1,1.2,2,1.7l80.4,46.7
			c3.7,2.1,9.6,2.1,13.3,0l32.8-18.9c1-0.6,1.7-1.2,2.1-1.9c0,0,0,0,0,0C408.6,144.8,407.6,141,406.7,140z"/>
		<g>
			<linearGradient id="SVGID_22_" gradientUnits="userSpaceOnUse" x1="275.2155" y1="127.8468" x2="407.2488" y2="127.8468">
				<stop  offset="0" style="stop-color:#1A1B24"/>
				<stop  offset="1" style="stop-color:#434654"/>
			</linearGradient>
			<path class="st21" d="M310.8,91.2c3.7-2.1,9.7-2.1,13.3,0l80.4,46.7c3.7,2.1,3.7,5.6,0,7.7l-32.8,18.9c-3.7,2.1-9.7,2.1-13.3,0
				L278,117.8c-3.7-2.1-3.7-5.6,0-7.7L310.8,91.2z"/>
		</g>
		<g>
			<linearGradient id="SVGID_23_" gradientUnits="userSpaceOnUse" x1="319.0307" y1="89.0131" x2="363.4326" y2="165.9195">
				<stop  offset="0" style="stop-color:#584BDB"/>
				<stop  offset="1" style="stop-color:#58CADB"/>
			</linearGradient>
			<path class="st22" d="M280.8,111.1c-2.3,1.3-2.3,3.5,0,4.9l80.2,46.6c2.3,1.3,6.1,1.3,8.4,0l32.4-18.7c2.3-1.3,2.3-3.5,0-4.9
				l-80.2-46.6c-2.3-1.3-6.1-1.3-8.4,0l-3.8,2.2c-0.5,0.3-0.5,0.8,0,1.1l0.7,0.4c0.9,0.5,0.9,1.3,0,1.8l-19.6,11.3
				c-0.9,0.5-2.3,0.5-3.1,0l-0.7-0.4c-0.5-0.3-1.4-0.3-1.9,0L280.8,111.1z"/>
		</g>
	</g>
	<g>
		
			<linearGradient id="SVGID_24_" gradientUnits="userSpaceOnUse" x1="222.4955" y1="86.5482" x2="355.4952" y2="86.5482" gradientTransform="matrix(-1 0 0 1 503.8242 0)">
			<stop  offset="0.1663" style="stop-color:#ACB3CC"/>
			<stop  offset="0.5823" style="stop-color:#8D93A8"/>
			<stop  offset="0.7053" style="stop-color:#4A4E63"/>
		</linearGradient>
		<path class="st23" d="M149.3,95c0.1-0.2,3.3-0.9,8.5-2.1l74.1-43c3.7-2.1,9.6-2.1,13.3,0l31.5,18.2c2.3-0.5,3.6-0.7,3.6-0.7
			c1.3,2.1,1.1,4.5,0.3,6.4c-0.1,0.4-0.3,0.7-0.6,1.1c0,0,0,0,0,0c0,0,0,0,0,0c-0.5,0.6-1.1,1.2-2,1.7l-80.4,46.7
			c-3.7,2.1-9.6,2.1-13.3,0l-32.8-18.9c-1-0.6-1.7-1.2-2.1-1.9c0,0,0,0,0,0C147.5,99.8,148.5,96.1,149.3,95z"/>
		<g>
			
				<linearGradient id="SVGID_25_" gradientUnits="userSpaceOnUse" x1="222.9667" y1="82.892" x2="355" y2="82.892" gradientTransform="matrix(-1 0 0 1 503.8242 0)">
				<stop  offset="0" style="stop-color:#434654"/>
				<stop  offset="1" style="stop-color:#1A1B24"/>
			</linearGradient>
			<path class="st24" d="M278.1,65.1c3.7,2.1,3.7,5.6,0,7.7l-80.4,46.7c-3.7,2.1-9.6,2.1-13.3,0l-32.8-18.9c-3.7-2.1-3.7-5.6,0-7.7
				l80.4-46.7c3.7-2.1,9.6-2.1,13.3,0L278.1,65.1z"/>
		</g>
		<g>
			
				<linearGradient id="SVGID_26_" gradientUnits="userSpaceOnUse" x1="266.7819" y1="44.0583" x2="311.1838" y2="120.9646" gradientTransform="matrix(-1 0 0 1 503.8242 0)">
				<stop  offset="0" style="stop-color:#584BDB"/>
				<stop  offset="1" style="stop-color:#58CADB"/>
			</linearGradient>
			<path class="st25" d="M275.3,66.1c2.3,1.3,2.3,3.5,0,4.9l-80.2,46.6c-2.3,1.3-6.1,1.3-8.4,0l-32.4-18.7c-2.3-1.3-2.3-3.5,0-4.9
				l80.2-46.6c2.3-1.3,6.1-1.3,8.4,0l3.8,2.2c0.5,0.3,0.5,0.8,0,1.1l-0.7,0.4c-0.9,0.5-0.9,1.3,0,1.8l19.6,11.3
				c0.9,0.5,2.3,0.5,3.1,0l0.7-0.4c0.5-0.3,1.4-0.3,1.9,0L275.3,66.1z"/>
		</g>
	</g>
</g>
</svg>
