<?xml version="1.0" encoding="utf-8"?>
<!-- Generator: Adobe Illustrator 22.1.0, SVG Export Plug-In . SVG Version: 6.00 Build 0)  -->
<svg version="1.1" id="Layer_1" xmlns="http://www.w3.org/2000/svg" xmlns:xlink="http://www.w3.org/1999/xlink" x="0px" y="0px"
	 viewBox="0 0 476 299" style="enable-background:new 0 0 476 299;" xml:space="preserve">
<style type="text/css">
	.st0{fill:url(#SVGID_1_);}
	.st1{fill:url(#SVGID_2_);}
	.st2{fill:#FFFFFF;}
</style>
<g>
	<linearGradient id="SVGID_1_" gradientUnits="userSpaceOnUse" x1="15.2159" y1="153.858" x2="464.784" y2="153.858">
		<stop  offset="0.3823" style="stop-color:#000000"/>
		<stop  offset="0.6104" style="stop-color:#63687D"/>
	</linearGradient>
	<path class="st0" d="M464.8,153.9C464.8,153.9,464.8,153.9,464.8,153.9v-7h-3.6c-0.8-0.7-1.8-1.4-2.9-2.1L254.9,27.4
		c-8.7-5-22.7-5-31.3,0l-202,117.4c-1.1,0.6-2.1,1.3-2.9,2.1h-3.6v7h0c0,3.3,2.2,6.6,6.5,9.1L225,280.3c8.7,5,22.7,5,31.3,0
		l202-117.4C462.7,160.4,464.8,157.1,464.8,153.9L464.8,153.9L464.8,153.9z"/>
	<g>
		<linearGradient id="SVGID_2_" gradientUnits="userSpaceOnUse" x1="15.2159" y1="146.8608" x2="464.7841" y2="146.8608">
			<stop  offset="0" style="stop-color:#1E2029"/>
			<stop  offset="1" style="stop-color:#434654"/>
		</linearGradient>
		<path class="st1" d="M458.2,137.8c8.7,5,8.7,13.1,0.1,18.1l-202,117.4c-8.6,5-22.6,5-31.3,0L21.8,155.9c-8.7-5-8.7-13.1-0.1-18.1
			l202-117.4c8.6-5,22.7-5,31.3,0L458.2,137.8z"/>
	</g>
	<g>
		<path class="st2" d="M280.2,153.8c3.4,2,3.4,5.2,0,7.1l-48.5,28.2c-3.4,2-8.9,2-12.3,0l-51.1-29.5c-3.4-2-3.4-5.2,0-7.1l48.5-28.2
			c3.4-2,8.9-2,12.3,0L280.2,153.8z M225.5,178.8l36.9-21.4L223,134.6L186.1,156L225.5,178.8 M217.1,131.2l6-3.5L217.1,131.2"/>
	</g>
	<g>
		<path class="st2" d="M290.2,118.2c0.2,0.1,0.3,0.3,0.4,0.4l10.7,28.6c0.2,0.7-0.4,1.4-1.6,1.7l-10.8,3.1c-0.6,0.1-1.2,0.2-1.8,0.1
			c-0.1,0-0.3-0.1-0.5-0.2c-0.2-0.1-0.4-0.3-0.4-0.5l-8.4-23.4c-0.2-0.6-0.7-1.2-1.4-1.6c-0.7-0.4-1.7-0.7-2.8-0.8l-40.4-4.9
			c-0.3,0-0.5-0.1-0.7-0.2c-0.1-0.1-0.2-0.1-0.3-0.2c-0.3-0.3-0.3-0.8,0-1.2l5.1-6.2c0.6-0.6,2-1,3-0.9l49.2,6.1
			C289.8,118,290.1,118.1,290.2,118.2z"/>
	</g>
</g>
</svg>
