<?xml version="1.0" encoding="utf-8"?>
<!-- Generator: Adobe Illustrator 22.1.0, SVG Export Plug-In . SVG Version: 6.00 Build 0)  -->
<svg version="1.1" id="Layer_1" xmlns="http://www.w3.org/2000/svg" xmlns:xlink="http://www.w3.org/1999/xlink" x="0px" y="0px"
	 viewBox="0 0 476 326" style="enable-background:new 0 0 476 326;" xml:space="preserve">
<style type="text/css">
	.st0{fill:url(#SVGID_1_);}
	.st1{fill:url(#SVGID_2_);}
	.st2{opacity:0.302;fill:#EEF1F5;}
	.st3{enable-background:new    ;}
	.st4{opacity:0.5;}
	.st5{fill:#3AEDF6;}
	.st6{fill:url(#SVGID_3_);}
	.st7{fill:url(#SVGID_4_);}
	.st8{fill:url(#SVGID_5_);}
	.st9{fill:#6D75B6;}
	.st10{fill:#838DDB;}
	.st11{fill:#4851B3;}
	.st12{fill:url(#SVGID_6_);}
	.st13{fill:url(#SVGID_7_);}
	.st14{fill:url(#SVGID_8_);}
	.st15{fill:url(#SVGID_9_);}
	.st16{fill:url(#SVGID_10_);}
	.st17{fill:url(#SVGID_11_);}
	.st18{fill:url(#SVGID_12_);}
	.st19{fill:url(#SVGID_13_);}
	.st20{fill:url(#SVGID_14_);}
	.st21{fill:url(#SVGID_15_);}
	.st22{fill:url(#SVGID_16_);}
	.st23{fill:url(#SVGID_17_);}
	.st24{fill:url(#SVGID_18_);}
	.st25{fill:url(#SVGID_19_);}
	.st26{fill:url(#SVGID_20_);}
	.st27{fill:url(#SVGID_21_);}
	.st28{fill:url(#SVGID_22_);}
	.st29{fill:url(#SVGID_23_);}
	.st30{fill:url(#SVGID_24_);}
	.st31{fill:url(#SVGID_25_);}
</style>
<g>
	<linearGradient id="SVGID_1_" gradientUnits="userSpaceOnUse" x1="13.2159" y1="183.1073" x2="462.784" y2="183.1073">
		<stop  offset="0.3823" style="stop-color:#24252B"/>
		<stop  offset="0.6104" style="stop-color:#797D94"/>
	</linearGradient>
	<path class="st0" d="M462.8,183.1C462.8,183.1,462.8,183.1,462.8,183.1v-7h-3.6c-0.8-0.7-1.8-1.4-2.9-2.1L252.9,56.7
		c-8.7-5-22.7-5-31.3,0L19.7,174c-1.1,0.6-2.1,1.3-2.9,2.1h-3.6v7h0c0,3.3,2.2,6.6,6.5,9.1L223,309.6c8.7,5,22.7,5,31.3,0l202-117.4
		C460.7,189.7,462.8,186.4,462.8,183.1L462.8,183.1L462.8,183.1z"/>
	<g>
		<linearGradient id="SVGID_2_" gradientUnits="userSpaceOnUse" x1="13.2159" y1="176.1101" x2="462.7841" y2="176.1101">
			<stop  offset="0" style="stop-color:#2B2E37"/>
			<stop  offset="1" style="stop-color:#63687D"/>
		</linearGradient>
		<path class="st1" d="M456.2,167c8.7,5,8.7,13.1,0.1,18.1l-202,117.4c-8.6,5-22.6,5-31.3,0L19.8,185.2c-8.7-5-8.7-13.1-0.1-18.1
			l202-117.4c8.6-5,22.7-5,31.3,0L456.2,167z"/>
	</g>
</g>
<g>
	<g>
		<path class="st2" d="M100.5,186.7l-0.7-0.4l-1.4,0.8l0.7,0.4l-2.9,1.7l-0.7-0.4l-1.4,0.8l0.7,0.4l-2.9,1.7l-0.7-0.4l-1.4,0.8
			l0.7,0.4l-9.1,5.3c-4.1,2.4-10.8,2.4-14.9,0l-28.3-16.4c-4.1-2.4-4.1-6.2-0.1-8.6l28.2-16.4c4.1-2.4,10.8-2.4,14.9,0l9.1,5.3
			l-0.7,0.4l1.4,0.8l0.7-0.4l2.9,1.7l-0.7,0.4l1.4,0.8L96,165l2.9,1.7l-0.7,0.4l1.4,0.8l0.7-0.4l9.1,5.3c4.1,2.4,4.1,6.2,0,8.6
			L100.5,186.7z M80,196.9l28.2-16.4c3.3-1.9,3.3-5.1,0-7l-28.3-16.4c-3.3-1.9-8.7-1.9-12.1,0l-28.2,16.4c-3.3,1.9-3.3,5.1,0,7
			l28.3,16.4C71.3,198.9,76.7,198.9,80,196.9"/>
	</g>
	<g>
		<path class="st2" d="M337.8,201c4.1,2.4,4.1,6.2,0,8.6L309.7,226c-4.1,2.4-10.8,2.4-14.9,0l-8.5-4.9l0.7-0.4l-1.4-0.8l-0.7,0.4
			l-2.9-1.7l0.7-0.4l-1.4-0.8l-0.7,0.4l-2.9-1.7l0.7-0.4l-1.4-0.8l-0.7,0.4l-9.8-5.7c-4.1-2.4-4.1-6.2,0-8.6l9.1-5.3l0.7,0.4
			l1.4-0.8l-0.7-0.4l2.9-1.7l0.7,0.4l1.4-0.8l-0.7-0.4l2.9-1.7l0.7,0.4l1.4-0.8l-0.7-0.4l9.1-5.3c4.1-2.4,10.8-2.4,14.9,0l9.8,5.7
			l-0.7,0.4l1.4,0.8l0.7-0.4l2.9,1.7l-0.7,0.4l1.4,0.8l0.7-0.4l2.9,1.7l-0.7,0.4l1.4,0.8l0.7-0.4L337.8,201z M308.3,225.2l28.2-16.4
			c3.3-1.9,3.3-5.1,0-7l-28.3-16.4c-3.3-1.9-8.8-1.9-12.1,0l-28.2,16.4c-3.3,1.9-3.3,5.1,0,7l28.3,16.4
			C299.6,227.1,305,227.1,308.3,225.2"/>
	</g>
	<g class="st3">
		<g>
			<path class="st2" d="M278.4,215.7l-0.7,0.4l-14.9,8.6c-6.2,3.6-6.2,9.5,0.1,13.1l8.6,4.9c1.3,0.8,2,1.8,2,2.8
				c0,1.1-0.7,2.1-2,2.8l-15.4,9l-0.7,0.4L254,257l0.7-0.4l15.4-9c0.9-0.5,1.4-1.2,1.4-2c0-0.8-0.5-1.5-1.4-2l-8.6-4.9
				c-7-4.1-7.1-10.7-0.1-14.7l14.9-8.6l0.7-0.4L278.4,215.7z"/>
		</g>
		<g>
			<path class="st2" d="M218,221c7,4.1,7.1,10.7,0.1,14.7l-12.8,7.4c-1.9,1.1-1.9,2.9,0,4l16.2,9.4l0.7,0.4l-1.4,0.8l-0.7-0.4
				l-16.2-9.4c-2.7-1.6-2.7-4.1,0-5.6l12.8-7.4c6.2-3.6,6.2-9.5-0.1-13.1l-16.3-9.4l-0.7-0.4l1.4-0.8l0.7,0.4L218,221z"/>
		</g>
		<g>
			<path class="st2" d="M282.7,218.2l-0.7,0.4l-14.5,8.4c-4.1,2.4-4,6.2,0.1,8.6l8.5,4.9c4.9,2.8,4.9,7.4,0.1,10.2l-15.8,9.2
				l-0.7,0.4l-1.4-0.8l0.7-0.4l15.8-9.2c4.1-2.4,4-6.2,0-8.6l-8.5-4.9c-4.9-2.8-4.9-7.4-0.1-10.2l14.5-8.4l0.7-0.4L282.7,218.2z"/>
		</g>
		<g>
			<path class="st2" d="M213.3,223.3c2.4,1.4,3.7,3.2,3.7,5.1c0,1.9-1.3,3.7-3.6,5.1l-12.8,7.4c-4.1,2.4-4,6.2,0,8.6l16.6,9.6
				l0.7,0.4l-1.4,0.8l-0.7-0.4l-16.6-9.6c-4.9-2.8-4.9-7.4-0.1-10.2l12.8-7.4c2-1.1,3.1-2.7,3-4.3c0-1.6-1.1-3.1-3.1-4.3L196,215
				l-0.7-0.4l1.4-0.8l0.7,0.4L213.3,223.3z"/>
		</g>
		<g>
			<path class="st2" d="M287,220.7l-0.7,0.4l-14.1,8.2c-1.9,1.1-1.9,2.9,0,4l8.6,4.9c7,4.1,7.1,10.7,0.1,14.7l-16.2,9.4l-0.7,0.4
				l-1.4-0.8l0.7-0.4l16.2-9.4c6.2-3.6,6.2-9.5-0.1-13.1l-8.6-4.9c-2.7-1.6-2.7-4.1,0-5.6l14.1-8.2l0.7-0.4L287,220.7z"/>
		</g>
		<g>
			<path class="st2" d="M208.7,225.6c2.7,1.5,2.7,4.1,0,5.6l-12.8,7.4c-3,1.8-4.7,4.1-4.6,6.5c0,2.5,1.7,4.8,4.7,6.5l17,9.8l0.7,0.4
				l-1.4,0.8l-0.7-0.4l-17-9.8c-3.4-2-5.3-4.6-5.3-7.4c0-2.8,1.8-5.4,5.2-7.4l12.8-7.4c1.9-1.1,1.9-2.9,0-4l-15.5-9L191,217l1.4-0.8
				l0.7,0.4L208.7,225.6z"/>
		</g>
		<g>
			<path class="st2" d="M273.9,267.7c4.1,2.4,4.1,6.2,0,8.6l-28.2,16.4c-2,1.2-4.6,1.8-7.4,1.8c-2.8,0-5.5-0.6-7.4-1.8l-28.3-16.4
				c-4.1-2.4-4.1-6.2-0.1-8.6l9.1-5.3l0.7,0.4l1.4-0.8l-0.7-0.4l2.9-1.7l0.7,0.4l1.4-0.8l-0.7-0.4l2.9-1.7l0.7,0.4l1.4-0.8l-0.7-0.4
				l9.1-5.3c2-1.2,4.6-1.8,7.4-1.8c2.8,0,5.5,0.6,7.4,1.8l9.1,5.3L254,257l1.4,0.8l0.7-0.4l2.9,1.7l-0.7,0.4l1.4,0.8l0.7-0.4
				l2.9,1.7l-0.7,0.4l1.4,0.8l0.7-0.4L273.9,267.7z M244.3,291.8l28.2-16.4c3.3-1.9,3.3-5.1,0-7l-28.3-16.4c-1.6-0.9-3.8-1.4-6-1.4
				c-2.3,0-4.4,0.5-6,1.4l-28.2,16.4c-3.3,1.9-3.3,5.1,0,7l28.3,16.4c1.6,0.9,3.8,1.4,6,1.4C240.6,293.3,242.7,292.8,244.3,291.8"/>
		</g>
	</g>
	<g>
		<path class="st2" d="M150.6,192.1l-1.4,0.8l-0.7-0.4l-5.8-3.4c-1.9-1.1-5-1.1-6.9,0l-12.8,7.4c-3.4,2-7.9,3.1-12.7,3.1
			c-4.8,0-9.3-1.1-12.7-3.1l-7-4.1l-0.7-0.4l1.4-0.8l0.7,0.4l7,4.1c3,1.8,7.1,2.7,11.3,2.7c4.3,0,8.3-1,11.3-2.7l12.8-7.4
			c2.7-1.6,7-1.6,9.7,0l5.8,3.4L150.6,192.1z"/>
	</g>
	<g>
		<path class="st2" d="M159.2,187.1l-1.4,0.8l-0.7-0.4l-6.6-3.8c-6.3-3.6-16.4-3.6-22.6,0l-12.8,7.4c-2.7,1.6-7,1.6-9.7,0l-6.3-3.6
			l-0.7-0.4l1.4-0.8l0.7,0.4l6.3,3.6c1.9,1.1,5,1.1,6.9,0l12.8-7.4c7-4.1,18.4-4.1,25.4,0l6.6,3.8L159.2,187.1z"/>
	</g>
	<g>
		<path class="st2" d="M154.9,189.6l-1.4,0.8l-0.7-0.4l-6.2-3.6c-4.1-2.4-10.7-2.4-14.8,0l-12.8,7.4c-4.8,2.8-12.7,2.8-17.6,0
			l-6.7-3.8l-0.7-0.4l1.4-0.8l0.7,0.4l6.7,3.8c4.1,2.4,10.7,2.4,14.8,0l12.8-7.4c4.8-2.8,12.7-2.8,17.6,0l6.2,3.6L154.9,189.6z"/>
	</g>
	<g class="st3">
		<g>
			<path class="st2" d="M264.4,91.4l-1.1-0.6l-1.4,0.8l1.1,0.6l-2.9,1.7l-1.1-0.6l-1.4,0.8l1.1,0.6l-2.9,1.7l-1.1-0.6l-1.4,0.8
				l1.1,0.6l-9.1,5.3c-4.1,2.4-10.8,2.4-14.9,0l-9.1-5.3l0.7-0.4l-1.4-0.8l-0.7,0.4l-2.9-1.7l0.7-0.4l-1.4-0.8l-0.7,0.4l-2.9-1.7
				l0.7-0.4L212,91l-0.7,0.4l-9.1-5.3c-4.1-2.4-4.1-6.2,0-8.6l28.1-16.4c2-1.2,4.6-1.8,7.4-1.8c2.8,0,5.5,0.6,7.4,1.8l28.3,16.4
				c2,1.2,3.1,2.7,3.1,4.3c0,1.6-1.1,3.2-3.1,4.3L264.4,91.4z M244,101.6l28.2-16.4c1.6-0.9,2.5-2.2,2.5-3.5c0-1.3-0.9-2.6-2.5-3.5
				l-28.3-16.4c-1.6-0.9-3.8-1.4-6-1.4c-2.3,0-4.4,0.5-6,1.5l-28.2,16.4c-3.3,1.9-3.3,5.1,0,7l28.3,16.4
				C235.2,103.6,240.6,103.6,244,101.6"/>
		</g>
		<g>
			<polygon class="st2" points="386.6,161.9 385.2,162.7 384.1,162.1 263,92.2 262,91.6 263.4,90.8 264.4,91.4 385.5,161.3 			"/>
		</g>
		<g>
			<path class="st2" d="M285.9,149.9l-0.7-0.4l-1.4,0.8l0.7,0.4l-2.9,1.7l-0.7-0.4l-1.4,0.8l0.7,0.4l-2.9,1.7l-0.7-0.4l-1.4,0.8
				l0.7,0.4l-9.1,5.3c-4.1,2.4-10.8,2.4-14.9,0l-9.1-5.3l0.7-0.4l-1.4-0.8l-0.7,0.4l-2.9-1.7l0.7-0.4l-1.4-0.8l-0.7,0.4l-2.9-1.7
				l0.7-0.4l-1.4-0.8l-0.7,0.4l-9.1-5.3c-4.1-2.4-4.1-6.2,0-8.6l28.2-16.4c4.1-2.4,10.8-2.4,14.9,0l28.3,16.4c2,1.2,3.1,2.7,3.1,4.3
				c0,1.6-1.1,3.2-3.1,4.3L285.9,149.9z M265.4,160.1l28.2-16.4c1.6-0.9,2.5-2.2,2.5-3.5c0-1.3-0.9-2.6-2.5-3.5l-28.3-16.4
				c-3.3-1.9-8.7-1.9-12.1,0l-28.1,16.4c-3.3,1.9-3.3,5.1,0,7l28.3,16.4C256.7,162.1,262.1,162.1,265.4,160.1"/>
		</g>
		<g>
			<polygon class="st2" points="213.4,91.8 212.7,92.2 91.7,162.5 91,162.9 89.6,162.1 90.3,161.7 211.3,91.4 212,91 			"/>
		</g>
		<g>
			<polygon class="st2" points="382.3,164.4 380.9,165.2 379.8,164.6 258.7,94.7 257.7,94.1 259.1,93.3 260.2,93.9 381.2,163.8 			
				"/>
		</g>
		<g>
			<polygon class="st2" points="217.7,94.3 217,94.7 96,165 95.3,165.4 93.9,164.6 94.6,164.2 215.6,93.9 216.3,93.5 			"/>
		</g>
		<g>
			<polygon class="st2" points="378,166.9 376.6,167.7 375.5,167.1 254.5,97.2 253.4,96.6 254.8,95.7 255.9,96.4 376.9,166.3 			"/>
		</g>
		<g>
			<polygon class="st2" points="222.1,96.8 221.3,97.2 100.4,167.5 99.6,167.9 98.2,167.1 98.9,166.7 219.9,96.4 220.6,95.9 			"/>
		</g>
		<g>
			<path class="st2" d="M234.8,150.3l-0.7,0.4l-14.8,8.6c-3,1.8-5,4-5.7,6.4l-2.4,7.8c-0.8,2.7-3,5.1-6.3,7l-12,7l-0.7,0.4l-1.4-0.8
				l0.7-0.4l12-7c3-1.8,5-4,5.7-6.4l2.4-7.8c0.8-2.7,3-5.1,6.3-7l14.8-8.6l0.7-0.4L234.8,150.3z"/>
		</g>
		<g>
			<path class="st2" d="M239.2,152.8l-0.7,0.4l-13.4,7.8c-3,1.8-5,4-5.7,6.4l-2.4,7.8c-0.8,2.7-3,5.1-6.3,7l-13.4,7.8l-0.7,0.4
				l-1.4-0.8l0.7-0.4l13.4-7.8c3-1.8,5-4,5.7-6.4l2.4-7.8c0.8-2.7,3-5.1,6.3-7l13.4-7.8l0.7-0.4L239.2,152.8z"/>
		</g>
		<g>
			<path class="st2" d="M294.9,155.1c3.4,2,5.3,4.6,5.3,7.4c0,2.8-1.8,5.4-5.2,7.4l-18.7,10.8c-1.9,1.1-1.9,2.9,0,4l9.1,5.3l0.7,0.4
				l-1.4,0.8l-0.7-0.4l-9.1-5.3c-2.7-1.6-2.7-4.1,0-5.6l18.7-10.8c3-1.7,4.7-4.1,4.6-6.5c0-2.5-1.7-4.8-4.7-6.5l-9.1-5.2l-0.7-0.4
				l1.4-0.8l0.7,0.4L294.9,155.1z"/>
		</g>
		<g>
			<path class="st2" d="M243.5,155.3l-0.7,0.4l-12,6.9c-3,1.8-5,4-5.7,6.4l-2.4,7.8c-0.8,2.7-3,5.1-6.3,7l-14.8,8.6l-0.7,0.4
				l-1.4-0.8l0.7-0.4l14.8-8.6c3-1.8,5-4,5.7-6.4l2.4-7.8c0.8-2.7,3-5.1,6.3-7l12-6.9l0.7-0.4L243.5,155.3z"/>
		</g>
		<g>
			<path class="st2" d="M290.3,157.4c4.9,2.8,4.9,7.4,0.1,10.2l-18.6,10.8c-4.1,2.4-4,6.2,0,8.6l9.5,5.5l0.7,0.4l-1.4,0.8l-0.7-0.4
				l-9.5-5.5c-4.9-2.8-4.9-7.4-0.1-10.2l18.6-10.8c4.1-2.4,4-6.2,0-8.6l-8.7-5l-0.7-0.4l1.4-0.8l0.7,0.4L290.3,157.4z"/>
		</g>
		<g>
			<path class="st2" d="M285.6,159.7c2.7,1.6,2.7,4.1,0,5.6L267,176.1c-6.2,3.6-6.2,9.5,0.1,13.1l9.9,5.7l0.7,0.4l-1.4,0.8l-0.7-0.4
				l-9.9-5.7c-7-4.1-7.1-10.7-0.1-14.7l18.7-10.8c1.9-1.1,1.9-2.9,0-4l-8.3-4.8l-0.7-0.4l1.4-0.8l0.7,0.4L285.6,159.7z"/>
		</g>
		<g>
			<path class="st2" d="M201.7,211.7l-0.7-0.4l-1.4,0.8l0.7,0.4l-2.9,1.7l-0.7-0.4l-1.4,0.8l0.7,0.4l-2.9,1.7l-0.7-0.4L191,217
				l0.7,0.4l-9.1,5.3c-2,1.2-4.6,1.8-7.4,1.8c-2.8,0-5.5-0.6-7.4-1.8l-28.3-16.4c-4.1-2.4-4.1-6.2,0-8.6l9.1-5.3l0.7,0.4l1.4-0.8
				l-0.7-0.4l2.9-1.7l0.7,0.4l1.4-0.8l-0.7-0.4l2.9-1.7l0.7,0.4l1.4-0.8l-0.7-0.4l9.1-5.3c2-1.2,4.6-1.8,7.4-1.8
				c2.8,0,5.5,0.6,7.4,1.8l9.1,5.3l-0.7,0.4l1.4,0.8l0.7-0.4l2.9,1.7l-0.7,0.4l1.4,0.8l0.7-0.4l2.9,1.7l-0.7,0.4l1.4,0.8l0.7-0.4
				l9.1,5.3c4.1,2.4,4.1,6.2,0,8.6L201.7,211.7z M181.2,221.9l28.2-16.4c3.3-1.9,3.3-5.1,0-7L181,182.2c-1.6-0.9-3.8-1.4-6-1.4
				s-4.4,0.5-6,1.4l-28.2,16.4c-3.3,1.9-3.3,5.1,0,7l28.3,16.4c1.6,0.9,3.8,1.4,6,1.4C177.5,223.4,179.6,222.9,181.2,221.9"/>
		</g>
	</g>
	<g>
		<path class="st2" d="M382.1,189.2l-0.7,0.4l-7.1,4.1c-4.8,2.8-12.7,2.8-17.6,0l-8.5-4.9c-4.1-2.4-10.7-2.4-14.8,0l-8.4,4.9
			l-0.7,0.4l-1.4-0.8l0.7-0.4l8.4-4.9c4.8-2.8,12.7-2.8,17.6,0l8.5,4.9c4.1,2.4,10.7,2.4,14.8,0l7.1-4.1l0.7-0.4L382.1,189.2z"/>
	</g>
	<g>
		<path class="st2" d="M377.8,186.7l-0.7,0.4l-6.7,3.9c-2.7,1.6-7,1.6-9.7,0l-8.6-4.9c-3-1.7-7-2.7-11.3-2.7c-4.3,0-8.3,1-11.3,2.7
			l-8.8,5.1l-0.7,0.4l-1.4-0.8l0.7-0.4l8.8-5.1c3.4-2,7.9-3.1,12.7-3.1c4.8,0,9.3,1.1,12.7,3l8.6,4.9c1.9,1.1,5,1.1,6.9,0l6.7-3.9
			l0.7-0.4L377.8,186.7z"/>
	</g>
	<g>
		<path class="st2" d="M386.4,191.7l-0.7,0.4l-7.5,4.3c-7,4.1-18.4,4.1-25.4,0l-8.6-4.9c-1.9-1.1-5-1.1-6.9,0l-8,4.7l-0.7,0.4
			l-1.4-0.8l0.7-0.4l8-4.7c2.7-1.5,7-1.6,9.7,0l8.6,4.9c6.3,3.6,16.4,3.6,22.6,0l7.5-4.3l0.7-0.4L386.4,191.7z"/>
	</g>
	<g>
		<path class="st2" d="M437.8,172.4c4.1,2.4,4.1,6.2,0,8.6l-28.2,16.4c-4.1,2.4-10.8,2.4-14.9,0l-9.1-5.3l0.7-0.4l-1.4-0.8l-0.7,0.4
			l-2.9-1.7l0.7-0.4l-1.4-0.8l-0.7,0.4l-2.9-1.7l0.7-0.4l-1.4-0.8l-0.7,0.4l-9.1-5.3c-4.1-2.4-4.1-6.2,0-8.6l9.1-5.3l1.1,0.6
			l1.4-0.8l-1.1-0.6l2.9-1.7l1.1,0.6l1.4-0.8l-1.1-0.6l2.9-1.7l1.1,0.6l1.4-0.8l-1.1-0.6l9.1-5.3c4.1-2.4,10.8-2.4,14.9,0
			L437.8,172.4z M408.3,196.5l28.2-16.4c3.3-1.9,3.3-5.1,0-7l-28.3-16.4c-3.3-1.9-8.7-1.9-12.1,0l-28.1,16.4c-3.3,1.9-3.3,5.1,0,7
			l28.3,16.4C399.6,198.4,405,198.4,408.3,196.5"/>
	</g>
</g>
<g>
	<g class="st4">
		
			<!-- <image style="overflow:visible;" width="150" height="118" xlink:href="E81C3EFB1E64A6BA.png"  transform="matrix(1 0 0 1 227 146)"> -->
		<!-- </image> -->
	</g>
	<path class="st5" d="M337.8,201c4.1,2.4,4.1,6.2,0,8.6L309.7,226c-4.1,2.4-10.8,2.4-14.9,0l-8.5-4.9l-1.4-0.8l-2.9-1.7l-1.4-0.8
		l-2.9-1.7l-1.4-0.8l-9.8-5.7c-4.1-2.4-4.1-6.2,0-8.6l9.1-5.3l1.4-0.8l2.9-1.7l1.4-0.8l2.9-1.7l1.4-0.8l9.1-5.3
		c4.1-2.4,10.8-2.4,14.9,0l9.8,5.7l1.4,0.8l2.9,1.7l1.4,0.8l2.9,1.7l1.4,0.8L337.8,201z M308.3,225.2l28.2-16.4c3.3-1.9,3.3-5.1,0-7
		l-28.3-16.4c-3.3-1.9-8.8-1.9-12.1,0l-28.2,16.4c-3.3,1.9-3.3,5.1,0,7l28.3,16.4C299.6,227.1,305,227.1,308.3,225.2"/>
	<g class="st4">
		
			<!-- <image style="overflow:visible;" width="93" height="99" xlink:href="E81C3EFB1E64A6BE.png"  transform="matrix(1 0 0 1 217 195)"> -->
		<!-- </image> -->
	</g>
	<g class="st4">
		
			<!-- <image style="overflow:visible;" width="94" height="102" xlink:href="E81C3EFB1E64A6B9.png"  transform="matrix(1 0 0 1 222 195)"> -->
		<!-- </image> -->
	</g>
	<g class="st4">
		
			<!-- <image style="overflow:visible;" width="97" height="104" xlink:href="E81C3EFB1E64A6BB.png"  transform="matrix(1 0 0 1 226 195)">
		</image> -->
	</g>
	<linearGradient id="SVGID_3_" gradientUnits="userSpaceOnUse" x1="263.7207" y1="257.8038" x2="263.7207" y2="231.1904">
		<stop  offset="0" style="stop-color:#3AEDF6;stop-opacity:0"/>
		<stop  offset="0.6839" style="stop-color:#3AEDF6"/>
	</linearGradient>
	<path class="st6" d="M271.5,242.8l-8.6-4.9c-3.2-1.8-4.7-4.2-4.7-6.6c-0.7,0-1.3,0-2-0.1c0,2.7,1.7,5.4,5.3,7.5l8.6,4.9
		c0.9,0.5,1.4,1.2,1.4,2c0,0.8-0.5,1.5-1.4,2l-15.4,9L254,257l1.4,0.8l0.7-0.4l15.4-9c1.3-0.8,2-1.7,2-2.8
		C273.5,244.6,272.8,243.6,271.5,242.8z"/>
	<linearGradient id="SVGID_4_" gradientUnits="userSpaceOnUse" x1="269.024" y1="260.2958" x2="269.024" y2="231.3497">
		<stop  offset="0" style="stop-color:#3AEDF6;stop-opacity:0"/>
		<stop  offset="0.6839" style="stop-color:#3AEDF6"/>
	</linearGradient>
	<path class="st7" d="M276.1,240.5l-8.5-4.9c-2-1.2-3-2.7-3.1-4.2c-0.7,0-1.3,0-2-0.1c0,1.8,1.2,3.7,3.7,5.1l8.5,4.9
		c4.1,2.4,4.1,6.2,0,8.6l-15.8,9.2l-0.7,0.4l1.4,0.8l0.7-0.4l15.8-9.2C281,247.9,281,243.3,276.1,240.5z"/>
	<linearGradient id="SVGID_5_" gradientUnits="userSpaceOnUse" x1="274.3354" y1="262.7876" x2="274.3354" y2="231.5033">
		<stop  offset="0" style="stop-color:#3AEDF6;stop-opacity:0"/>
		<stop  offset="0.6839" style="stop-color:#3AEDF6"/>
	</linearGradient>
	<path class="st8" d="M280.8,238.2l-8.6-4.9c-0.9-0.5-1.3-1.1-1.4-1.8c-0.7,0-1.3,0-2,0c0.1,1,0.7,1.9,2,2.6l8.6,4.9
		c6.3,3.6,6.3,9.5,0.1,13.1l-16.2,9.4l-0.7,0.4l1.4,0.8l0.7-0.4l16.2-9.4C287.9,248.9,287.8,242.3,280.8,238.2z"/>
	<g class="st4">
		
			<!-- <image style="overflow:visible;" width="150" height="118" xlink:href="E81C3EFB1E64A6B8.png"  transform="matrix(1 0 0 1 163 213)">
		</image> -->
	</g>
	<path class="st5" d="M273.9,267.7c4.1,2.4,4.1,6.2,0,8.6l-28.2,16.4c-2,1.2-4.6,1.8-7.4,1.8c-2.8,0-5.5-0.6-7.4-1.8l-28.3-16.4
		c-4.1-2.4-4.1-6.2-0.1-8.6l9.1-5.3l1.4-0.8l2.9-1.7l1.4-0.8l2.9-1.7l1.4-0.8l9.1-5.3c2-1.2,4.6-1.8,7.4-1.8c2.8,0,5.5,0.6,7.4,1.8
		l9.1,5.3l1.4,0.8l2.9,1.7l1.4,0.8l2.9,1.7l1.4,0.8L273.9,267.7z M244.3,291.8l28.2-16.4c3.3-1.9,3.3-5.1,0-7l-28.3-16.4
		c-1.6-0.9-3.8-1.4-6-1.4c-2.3,0-4.4,0.5-6,1.4l-28.2,16.4c-3.3,1.9-3.3,5.1,0,7l28.3,16.4c1.6,0.9,3.8,1.4,6,1.4
		C240.6,293.3,242.7,292.8,244.3,291.8"/>
</g>
<g>
	<polygon class="st9" points="241.6,108.1 257.7,78.8 257.7,117.4 	"/>
	<polygon class="st9" points="257.7,102.8 241.6,112.2 257.7,121.5 273.8,112.2 	"/>
	<polygon class="st9" points="257.7,98.8 241.6,108.1 257.7,117.4 273.8,108.1 	"/>
	<polygon class="st9" points="241.6,112.2 257.7,141.5 257.7,121.5 	"/>
	<polygon class="st10" points="273.8,108.1 257.7,78.8 257.7,117.4 	"/>
	<polygon class="st10" points="273.8,112.2 257.7,141.5 257.7,121.5 	"/>
</g>
<g>
	<polygon class="st9" points="220.9,35.7 237,6.4 237,45 	"/>
	<polygon class="st9" points="237,30.4 220.9,39.8 237,49.1 253.1,39.8 	"/>
	<polygon class="st9" points="237,26.4 220.9,35.7 237,45 253.1,35.7 	"/>
	<polygon class="st9" points="220.9,39.8 237,69.1 237,49.1 	"/>
	<polygon class="st10" points="253.1,35.7 237,6.4 237,45 	"/>
	<polygon class="st10" points="253.1,39.8 237,69.1 237,49.1 	"/>
</g>
<g>
	<polygon class="st11" points="301.4,168.2 285.3,177.5 301.4,186.8 317.5,177.5 	"/>
	<linearGradient id="SVGID_6_" gradientUnits="userSpaceOnUse" x1="289.0263" y1="199.6556" x2="297.6958" y2="184.6395">
		<stop  offset="0" style="stop-color:#80C5DB"/>
		<stop  offset="1" style="stop-color:#4E5EB7"/>
	</linearGradient>
	<polygon class="st12" points="285.3,177.5 301.4,206.8 301.4,186.8 	"/>
	<linearGradient id="SVGID_7_" gradientUnits="userSpaceOnUse" x1="293.0564" y1="148.9657" x2="309.7862" y2="177.9425">
		<stop  offset="0" style="stop-color:#838DDB"/>
		<stop  offset="1" style="stop-color:#6D79DB"/>
	</linearGradient>
	<polygon class="st13" points="317.5,173.5 301.4,144.1 301.4,182.8 	"/>
	<linearGradient id="SVGID_8_" gradientUnits="userSpaceOnUse" x1="305.1467" y1="184.6395" x2="313.8163" y2="199.6556">
		<stop  offset="0" style="stop-color:#6D79DB"/>
		<stop  offset="1" style="stop-color:#83CBDB"/>
	</linearGradient>
	<polygon class="st14" points="317.5,177.5 301.4,206.8 301.4,186.8 	"/>
	<linearGradient id="SVGID_9_" gradientUnits="userSpaceOnUse" x1="293.0564" y1="177.9425" x2="309.7862" y2="148.9657">
		<stop  offset="0" style="stop-color:#4851B3"/>
		<stop  offset="1" style="stop-color:#5D67C0"/>
	</linearGradient>
	<polygon class="st15" points="285.3,173.5 301.4,144.1 301.4,182.8 	"/>
</g>
<g>
	<polygon class="st11" points="238,234 221.9,243.3 238,252.7 254.1,243.3 	"/>
	<linearGradient id="SVGID_10_" gradientUnits="userSpaceOnUse" x1="225.605" y1="265.5172" x2="234.2746" y2="250.5011">
		<stop  offset="0" style="stop-color:#80C5DB"/>
		<stop  offset="1" style="stop-color:#4E5EB7"/>
	</linearGradient>
	<polygon class="st16" points="221.9,243.3 238,272.7 238,252.7 	"/>
	<linearGradient id="SVGID_11_" gradientUnits="userSpaceOnUse" x1="229.6351" y1="214.8274" x2="246.3649" y2="243.8042">
		<stop  offset="0" style="stop-color:#838DDB"/>
		<stop  offset="1" style="stop-color:#6D79DB"/>
	</linearGradient>
	<polygon class="st17" points="254.1,239.3 238,210 238,248.6 	"/>
	<linearGradient id="SVGID_12_" gradientUnits="userSpaceOnUse" x1="241.7255" y1="250.5011" x2="250.395" y2="265.5172">
		<stop  offset="0" style="stop-color:#6D79DB"/>
		<stop  offset="1" style="stop-color:#83CBDB"/>
	</linearGradient>
	<polygon class="st18" points="254.1,243.3 238,272.7 238,252.7 	"/>
	<linearGradient id="SVGID_13_" gradientUnits="userSpaceOnUse" x1="229.6351" y1="243.8042" x2="246.3649" y2="214.8274">
		<stop  offset="0" style="stop-color:#4851B3"/>
		<stop  offset="1" style="stop-color:#5D67C0"/>
	</linearGradient>
	<polygon class="st19" points="221.9,239.3 238,210 238,248.6 	"/>
</g>
<g>
	<polygon class="st11" points="174.3,163 158.2,172.3 174.3,181.6 190.4,172.3 	"/>
	<linearGradient id="SVGID_14_" gradientUnits="userSpaceOnUse" x1="161.9086" y1="194.5041" x2="170.5782" y2="179.488">
		<stop  offset="0" style="stop-color:#5D67C0"/>
		<stop  offset="1" style="stop-color:#4851B3"/>
	</linearGradient>
	<polygon class="st20" points="158.2,172.3 174.3,201.7 174.3,181.6 	"/>
	<linearGradient id="SVGID_15_" gradientUnits="userSpaceOnUse" x1="165.9387" y1="143.8142" x2="182.6685" y2="172.7911">
		<stop  offset="0" style="stop-color:#838DDB"/>
		<stop  offset="1" style="stop-color:#6D79DB"/>
	</linearGradient>
	<polygon class="st21" points="190.4,168.3 174.3,139 174.3,177.6 	"/>
	<linearGradient id="SVGID_16_" gradientUnits="userSpaceOnUse" x1="178.0291" y1="179.488" x2="186.6986" y2="194.5041">
		<stop  offset="0" style="stop-color:#6D79DB"/>
		<stop  offset="1" style="stop-color:#7A85DB"/>
	</linearGradient>
	<polygon class="st22" points="190.4,172.3 174.3,201.7 174.3,181.6 	"/>
	<linearGradient id="SVGID_17_" gradientUnits="userSpaceOnUse" x1="165.9387" y1="172.7911" x2="182.6685" y2="143.8142">
		<stop  offset="0" style="stop-color:#4851B3"/>
		<stop  offset="1" style="stop-color:#5D67C0"/>
	</linearGradient>
	<polygon class="st23" points="158.2,168.3 174.3,139 174.3,177.6 	"/>
</g>
<g>
	<polygon class="st11" points="73.5,138.9 57.4,148.2 73.5,157.5 89.6,148.2 	"/>
	<linearGradient id="SVGID_18_" gradientUnits="userSpaceOnUse" x1="61.1062" y1="170.3348" x2="69.7757" y2="155.3187">
		<stop  offset="0" style="stop-color:#5D67C0"/>
		<stop  offset="1" style="stop-color:#4851B3"/>
	</linearGradient>
	<polygon class="st24" points="57.4,148.2 73.5,177.5 73.5,157.5 	"/>
	<linearGradient id="SVGID_19_" gradientUnits="userSpaceOnUse" x1="65.1363" y1="119.6449" x2="81.8661" y2="148.6217">
		<stop  offset="0" style="stop-color:#838DDB"/>
		<stop  offset="1" style="stop-color:#6D79DB"/>
	</linearGradient>
	<polygon class="st25" points="89.6,144.1 73.5,114.8 73.5,153.5 	"/>
	<linearGradient id="SVGID_20_" gradientUnits="userSpaceOnUse" x1="77.2267" y1="155.3187" x2="85.8962" y2="170.3348">
		<stop  offset="0" style="stop-color:#6D79DB"/>
		<stop  offset="1" style="stop-color:#7A85DB"/>
	</linearGradient>
	<polygon class="st26" points="89.6,148.2 73.5,177.5 73.5,157.5 	"/>
	<linearGradient id="SVGID_21_" gradientUnits="userSpaceOnUse" x1="65.1363" y1="148.6217" x2="81.8661" y2="119.6449">
		<stop  offset="0" style="stop-color:#4851B3"/>
		<stop  offset="1" style="stop-color:#5D67C0"/>
	</linearGradient>
	<polygon class="st27" points="57.4,144.1 73.5,114.8 73.5,153.5 	"/>
</g>
<g>
	<polygon class="st11" points="402.2,138.9 386,148.2 402.2,157.5 418.3,148.2 	"/>
	<linearGradient id="SVGID_22_" gradientUnits="userSpaceOnUse" x1="389.7717" y1="170.3348" x2="398.4412" y2="155.3187">
		<stop  offset="0" style="stop-color:#5D67C0"/>
		<stop  offset="1" style="stop-color:#4851B3"/>
	</linearGradient>
	<polygon class="st28" points="386,148.2 402.2,177.5 402.2,157.5 	"/>
	<linearGradient id="SVGID_23_" gradientUnits="userSpaceOnUse" x1="393.8018" y1="119.6449" x2="410.5316" y2="148.6217">
		<stop  offset="0" style="stop-color:#838DDB"/>
		<stop  offset="1" style="stop-color:#6D79DB"/>
	</linearGradient>
	<polygon class="st29" points="418.3,144.1 402.2,114.8 402.2,153.5 	"/>
	<linearGradient id="SVGID_24_" gradientUnits="userSpaceOnUse" x1="405.8921" y1="155.3187" x2="414.5617" y2="170.3348">
		<stop  offset="0" style="stop-color:#6D79DB"/>
		<stop  offset="1" style="stop-color:#7A85DB"/>
	</linearGradient>
	<polygon class="st30" points="418.3,148.2 402.2,177.5 402.2,157.5 	"/>
	<linearGradient id="SVGID_25_" gradientUnits="userSpaceOnUse" x1="393.8018" y1="148.6217" x2="410.5316" y2="119.6449">
		<stop  offset="0" style="stop-color:#4851B3"/>
		<stop  offset="1" style="stop-color:#5D67C0"/>
	</linearGradient>
	<polygon class="st31" points="386,144.1 402.2,114.8 402.2,153.5 	"/>
</g>
</svg>
