<?xml version="1.0" encoding="UTF-8"?>
<svg width="99px" height="30px" viewBox="0 0 99 30" version="1.1" xmlns="http://www.w3.org/2000/svg" xmlns:xlink="http://www.w3.org/1999/xlink">
    <!-- Generator: Sketch 51.3 (57544) - http://www.bohemiancoding.com/sketch -->
    <title>Black</title>
    <desc>Created with Sketch.</desc>
    <defs></defs>
    <g id="UI" stroke="none" stroke-width="1" fill="none" fill-rule="evenodd">
        <g id="Standards" transform="translate(-315.000000, -854.000000)" fill="#000000" fill-rule="nonzero">
            <g id="Logos" transform="translate(315.000000, 767.000000)">
                <g id="Black" transform="translate(0.000000, 87.000000)">
                    <path d="M91.4924088,11.0976853 C92.3054149,8.92592999 95.7054656,7.89473684 97.7527834,7.89473684 L98.6842105,7.89473684 L98.6842105,12.7136676 C97.5159413,12.7136676 96.3248987,12.6534031 95.2021761,13.0283824 C94.4220966,13.2742475 93.7299448,13.7334713 93.2072368,14.3519702 C92.2530365,15.6130615 92.3327428,16.3920362 92.257591,17.5750069 C92.186994,18.7244971 92.2188765,19.510168 92.2188765,20.6618903 L92.2188765,29.2105263 L86.8421053,29.2105263 L86.8421053,8.11124275 L91.5015181,8.11124275 L91.4924088,11.0976853 Z M27.5064887,24.5102863 C23.7292049,28.2110913 20.4701529,30 15.1046674,30 C6.16963792,30 0,23.7544722 0,14.9597496 C0,5.92799642 6.99612816,0 15.1895504,0 C19.9722444,0.005442575 24.5150898,2.09721325 27.6315789,5.72898033 L23.8096202,9.38953487 C21.2251627,6.64355993 18.4039272,5.21243292 15.0644599,5.21243292 C9.70344214,5.21243292 5.32751139,9.34928443 5.32751139,14.9597496 C5.32751139,20.8497318 9.54037783,24.787567 15.1850827,24.787567 C18.7211208,24.787567 21.1067736,23.35644 23.8096202,20.6507155 L27.5064887,24.5102863 Z M49.8907927,25.3642728 C47.6330632,28.5688359 44.6561559,30 40.2230798,30 C33.5278213,30 29.2105263,25.0975964 29.2105263,18.9284789 C29.2105263,13.1949332 33.3697358,7.89473684 40.1451502,7.89473684 C46.8003308,7.89473684 51.3157895,12.6415794 51.3157895,19.2840476 C51.3157895,19.7596207 51.277938,19.9951851 51.277938,20.4707581 L34.3204758,20.4707581 C34.8348105,23.5953184 37.2150005,25.3331605 40.2230798,25.3331605 C42.480809,25.3331605 43.9881887,24.7020261 45.4532634,23.2775288 L49.8907927,25.3642728 Z M46.5789474,15.7894737 C45.842269,13.3487175 43.5079192,11.8421053 40.5934353,11.8421053 C37.8907466,11.8421053 35.8004216,13.1445815 34.7368421,15.7894737 L46.5789474,15.7894737 Z M54.4736842,0 L60,0 L60,29.2105263 L54.4736842,29.2105263 L54.4736842,0 Z M83.0466047,25.3642728 C80.7891028,28.5688359 77.8169479,30 73.3798655,30 C66.6852812,30 62.3684211,25.0975964 62.3684211,18.9284789 C62.3684211,13.1949332 66.5272117,7.89473684 73.3019439,7.89473684 C79.956454,7.89473684 84.4736842,12.6415794 84.4736842,19.2840476 C84.4736842,19.7596207 84.4336103,19.9951851 84.4336103,20.4707581 L67.4778559,20.4707581 C67.9921391,23.5953184 70.3720891,25.3331605 73.3798655,25.3331605 C75.6395938,25.3331605 77.1445951,24.7020261 78.6095225,23.2775288 L83.0466047,25.3642728 Z M78.9473684,15.7894737 C78.21069,13.3487175 75.8763405,11.8421053 72.9618565,11.8421053 C70.2591675,11.8421053 68.1711447,13.1445815 67.1052632,15.7894737 L78.9473684,15.7894737 Z" id="Combined-Shape"></path>
                </g>
            </g>
        </g>
    </g>
</svg>