<?xml version="1.0" encoding="UTF-8"?>
<svg width="763px" height="261px" viewBox="0 0 763 261" version="1.1" xmlns="http://www.w3.org/2000/svg" xmlns:xlink="http://www.w3.org/1999/xlink">
    <!-- Generator: Sketch 51.3 (57544) - http://www.bohemiancoding.com/sketch -->
    <title>ef-logo outlines</title>
    <desc>Created with Sketch.</desc>
    <defs></defs>
    <g id="Page-1" stroke="none" stroke-width="1" fill="none" fill-rule="evenodd">
        <g id="Artboard" transform="translate(-747.000000, -582.000000)" fill-rule="nonzero">
            <g id="ef-logo-outlines" transform="translate(747.000000, 582.000000)">
                <polygon id="Shape" fill="#FFE94D" points="77 182 77 0 0 133.173172"></polygon>
                <polygon id="Shape" fill="#FF9C92" points="77 0 154 133.173172 77 182"></polygon>
                <polyline id="Shape" fill="#53D3E0" points="0 149 77 197.9 77 261"></polyline>
                <polyline id="Shape" fill="#5A9DED" points="154 149 77 197.9 77 261"></polyline>
                <polygon id="Shape" fill="#88D848" opacity="0.75" points="77 89 0 132.411255 77 181"></polygon>
                <polygon id="Shape" fill="#CC71C3" opacity="0.75" points="77 89 154 132.411255 77 181"></polygon>
                <g id="Group" transform="translate(186.000000, 30.000000)" fill="#22222D">
                    <path d="M17,55 C17.3,64.4 24.1,68.9 31.9,68.9 C36.9,68.9 41.8,66.9 43.8,62.3 L56.8,62.3 C53.9,74.5 42.8,80.9 31.3,80.9 C17.4,80.9 3.6,71.5 3.6,51 C3.6,31.2 16.7,21 31.4,21 C45.4,21 57.3,30.3 57.3,49.3 L57.3,55 L17,55 Z M17.4,44.8 L43.6,44.8 C43.6,37.2 38.3,32.9 31.2,32.9 C24.8,32.9 18.6,36.4 17.4,44.8 Z" id="Shape"></path>
                    <path d="M101.3,79.6 L92.2,79.6 C81.3,79.6 74.5,76.2 74.5,60.8 L74.5,34.5 L64,34.5 L64,22 L74.5,22 L74.5,9 L88.4,5.2 L88.4,22 L99.9,22 L99.9,34.5 L88.4,34.5 L88.4,60.4 C88.4,64.4 89.5,67.3 95.3,67.3 L101.2,67.3 L101.2,79.6 L101.3,79.6 Z" id="Shape"></path>
                    <path d="M165.3,42.4 L165.3,79.6 L151.4,79.6 L151.4,43.6 C151.4,37.1 147.5,33.3 140.6,33.3 C132.3,33.3 127.9,39 127.9,48.4 L127.9,79.5 L114,79.5 L114,0 L128,0 L128,30.5 C131.2,25 135.7,21 145.5,21 C158.6,20.9 165.3,28.7 165.3,42.4 Z" id="Shape"></path>
                    <path d="M192.2,55 C192.5,64.4 199.3,68.9 207.1,68.9 C212.1,68.9 217,66.9 219,62.3 L232,62.3 C229.1,74.5 218,80.9 206.5,80.9 C192.6,80.9 178.8,71.5 178.8,51 C178.8,31.2 191.9,21 206.6,21 C220.6,21 232.5,30.3 232.5,49.3 L232.5,55 L192.2,55 Z M192.5,44.8 L218.7,44.8 C218.7,37.2 213.4,32.9 206.3,32.9 C199.9,32.9 193.8,36.4 192.5,44.8 Z" id="Shape"></path>
                    <path d="M279,34.8 L275.3,34.8 C265.6,34.8 260.3,40.1 260.3,51.4 L260.3,79.6 L246.4,79.6 L246.4,22 L260.2,22 L260.2,30.5 C263.1,24.2 268.5,21.3 275.2,21.3 L279,21.3 L279,34.8 Z" id="Shape"></path>
                    <path d="M299.2,55 C299.5,64.4 306.3,68.9 314.1,68.9 C319.1,68.9 324,66.9 326,62.3 L339,62.3 C336.1,74.5 325,80.9 313.5,80.9 C299.6,80.9 285.8,71.5 285.8,51 C285.8,31.2 298.9,21 313.6,21 C327.6,21 339.5,30.3 339.5,49.3 L339.5,55 L299.2,55 Z M299.5,44.8 L325.7,44.8 C325.7,37.2 320.4,32.9 313.3,32.9 C306.9,32.9 300.7,36.4 299.5,44.8 Z" id="Shape"></path>
                    <path d="M403.1,79.6 L389.5,79.6 L389.5,71.4 C386.1,76.8 381.4,80.2 373.5,80.2 C361.4,80.2 352.8,72.5 352.8,57.7 L352.8,22 L366.7,22 L366.7,56.8 C366.7,64.6 370.8,68 376.8,68 C383.3,68 389.2,63.2 389.2,49.9 L389.2,22 L403.1,22 L403.1,79.6 Z" id="Shape"></path>
                    <path d="M503.2,40.8 L503.2,79.7 L489.3,79.7 L489.3,43.5 C489.3,36.7 486.1,33.5 480.1,33.5 C473.5,33.5 469,37.5 469,47.3 L469,79.7 L455.1,79.7 L455.1,43.5 C455.1,36.7 451.6,33.5 445.8,33.5 C439.3,33.5 434.8,37.6 434.8,47.2 L434.8,79.7 L421,79.7 L421,22 L434.7,22 L434.7,30.5 C436.5,25.9 441.1,21 449.8,21 C457.5,21 463.2,24.5 465.9,30.5 C468.1,26.4 472.5,21 482.9,21 C495.4,20.9 503.2,28.3 503.2,40.8 Z" id="Shape"></path>
                    <path d="M29.1,120.3 C24.2,120.3 23.3,122.8 23.3,126.1 L23.3,129.9 L33.9,129.9 L33.9,142.4 L23.3,142.4 L23.3,187.5 L9.4,187.5 L9.4,142.4 L0.8,142.4 L0.8,130 L9.4,130 L9.4,126.9 C9.4,111.4 16.2,108.1 27,108.1 L35.4,108.1 L35.4,120.4 L29.1,120.4 L29.1,120.3 Z" id="Shape"></path>
                    <path d="M98.8,158.8 C98.8,177.6 87,188.8 70.1,188.8 C53.3,188.8 41.5,177.6 41.5,158.8 C41.5,140.1 53.3,128.9 70.1,128.9 C87,128.9 98.8,140.1 98.8,158.8 Z M55.8,158.8 C55.8,170.4 62,175.9 70.4,175.9 C79.4,175.9 84.6,169.6 84.6,158.8 C84.6,147.3 78.4,141.8 70,141.8 C61,141.8 55.8,148.1 55.8,158.8 Z" id="Shape"></path>
                    <path d="M162.5,187.6 L149,187.6 L149,179.4 C145.6,184.8 140.9,188.2 133,188.2 C120.9,188.2 112.3,180.5 112.3,165.7 L112.3,130 L126.2,130 L126.2,164.8 C126.2,172.6 130.3,176 136.3,176 C142.8,176 148.7,171.2 148.7,157.9 L148.7,130 L162.6,130 L162.6,187.6 L162.5,187.6 Z" id="Shape"></path>
                    <path d="M231.6,150.4 L231.6,187.6 L217.7,187.6 L217.7,151.6 C217.7,145.1 213.8,141.3 206.9,141.3 C198.6,141.3 194.2,147 194.2,156.4 L194.2,187.5 L180.3,187.5 L180.3,130 L194.1,130 L194.1,138.4 C197.3,133 202.1,129 211.7,129 C224.9,128.9 231.6,136.7 231.6,150.4 Z" id="Shape"></path>
                    <path d="M302.9,187.6 L289.2,187.6 L289.2,178.8 C286.1,185.4 278.9,188.9 270.9,188.9 C256.8,188.9 245,179 245,158.8 C245,138.9 256.8,129 270.9,129 C278.4,129 285.5,132 288.9,137.6 L288.9,108 L302.8,108 L302.8,187.6 L302.9,187.6 Z M289.3,158.7 C289.3,146.8 281.7,141.2 274.2,141.2 C266.1,141.2 259.2,146.9 259.2,158.7 C259.2,170.3 266.1,176.1 274.2,176.1 C281.7,176.1 289.3,170.5 289.3,158.7 Z" id="Shape"></path>
                    <path d="M367.1,148.9 L367.1,187.7 L353.5,187.7 L353.5,179.3 C349,186.7 341.5,188.9 335.4,188.9 C326.2,188.9 316.8,184 316.8,171.8 C316.8,157.4 329.9,154.9 335.2,154.1 L347.2,152.4 C349.8,152.1 354,150.9 354,146.2 C354,141.6 349.9,139.9 344.6,139.9 C336.9,139.9 333.1,143.5 332.5,148.4 L319.2,148.4 C320.7,135 332.2,128.9 345.2,128.9 C358.9,128.9 367.1,135.3 367.1,148.9 Z M353.7,163.4 L353.7,160.4 C351.9,161.2 350,161.6 346.8,162.1 L340,163 C336.4,163.4 330.7,165 330.7,170.7 C330.7,175.1 334.1,177.3 339.1,177.3 C347.2,177.3 353.7,171.4 353.7,163.4 Z" id="Shape"></path>
                    <path d="M414,187.6 L404.9,187.6 C394,187.6 387.2,184.2 387.2,168.8 L387.2,142.5 L376.7,142.5 L376.7,130 L387.2,130 L387.2,117 L401.1,113.2 L401.1,130 L412.6,130 L412.6,142.5 L401.1,142.5 L401.1,168.4 C401.1,172.4 402.2,175.3 408,175.3 L413.9,175.3 L413.9,187.6 L414,187.6 Z" id="Shape"></path>
                    <path d="M426.1,106.5 L440.9,106.5 L440.9,122.3 L426.1,122.3 L426.1,106.5 Z M426.5,187.6 L440.4,187.6 L440.4,130 L426.5,130 L426.5,187.6 Z" id="Shape"></path>
                    <path d="M511.3,158.8 C511.3,177.6 499.5,188.8 482.6,188.8 C465.8,188.8 454,177.6 454,158.8 C454,140.1 465.8,128.9 482.6,128.9 C499.5,128.9 511.3,140.1 511.3,158.8 Z M468.3,158.8 C468.3,170.4 474.5,175.9 482.9,175.9 C491.9,175.9 497.1,169.6 497.1,158.8 C497.1,147.3 490.9,141.8 482.5,141.8 C473.5,141.8 468.3,148.1 468.3,158.8 Z" id="Shape"></path>
                    <path d="M576.5,150.4 L576.5,187.6 L562.6,187.6 L562.6,151.6 C562.6,145.1 558.7,141.3 551.8,141.3 C543.5,141.3 539.1,147 539.1,156.4 L539.1,187.5 L525.2,187.5 L525.2,130 L539,130 L539,138.4 C542.2,133 547,129 556.6,129 C569.7,128.9 576.5,136.7 576.5,150.4 Z" id="Shape"></path>
                </g>
            </g>
        </g>
    </g>
</svg>