<svg width="1550" height="480" viewBox="0 0 1550 480" fill="none" xmlns="http://www.w3.org/2000/svg">
<path d="M335.891 31.3523C333.862 10.8298 301.161 3.162 297.327 2.25991C293.493 1.35782 263.273 -5.8589 226.513 22.5569C189.752 50.9727 174.191 116.149 174.191 116.149L171.034 130.131H166.073C136.881 130.19 108.9 141.797 88.2374 162.417C67.575 183.037 55.9108 210.995 55.7917 240.186V244.471C55.8361 266.166 62.2787 287.367 74.3131 305.418C86.3476 323.47 103.439 337.571 123.449 345.956L120.968 357.683C116.457 380.01 108.113 410.004 98.4156 430.752C88.7181 451.501 77.6675 460.747 66.3913 463.904C55.1152 467.062 48.1239 460.747 44.9666 458.041C41.8093 455.334 30.9842 437.969 30.9842 437.969C28.8993 434.993 26.0115 432.671 22.6575 431.274C19.3035 429.876 15.6213 429.461 12.0403 430.076C10.4616 430.301 -1.04008 433.684 0.0875347 449.245C2.11724 469.768 34.8181 477.661 38.4265 478.338C42.0348 479.014 72.4804 486.456 109.241 458.041C146.001 429.625 161.788 364.449 161.788 364.449L164.043 354.526H170.132C199.341 354.526 227.357 342.938 248.033 322.305C268.708 301.672 280.353 273.68 280.413 244.471V240.186C280.395 218.278 273.84 196.875 261.586 178.715C249.332 160.555 231.937 146.465 211.628 138.25C213.207 131.484 214.109 126.297 214.785 122.914C219.296 100.813 227.866 70.5932 237.338 50.0707C246.81 29.5481 258.086 19.8507 269.588 16.6933C281.089 13.536 287.855 19.8507 290.787 22.5569C293.719 25.2632 304.769 42.6284 304.769 42.6284C306.89 45.6228 309.818 47.954 313.211 49.3511C316.604 50.7483 320.324 51.1542 323.939 50.5217C325.517 50.2962 337.019 46.9133 335.891 31.3523ZM80.5993 244.471V240.186C80.7145 217.708 89.6334 196.171 105.443 180.192C121.253 164.214 142.695 155.067 165.17 154.713L150.511 217.634C150.06 219.212 139.912 263.189 139.912 263.189C139.912 263.189 133.597 294.311 128.41 321.149C114.073 314.111 101.994 303.197 93.5434 289.644C85.0929 276.092 80.6087 260.442 80.5993 244.471ZM255.831 240.186V244.471C255.771 267.161 246.716 288.9 230.65 304.923C214.585 320.946 192.822 329.944 170.132 329.944H169.455L195.165 217.634L206.441 162.832C221.144 169.739 233.587 180.671 242.329 194.362C251.07 208.054 255.752 223.942 255.831 240.186V240.186Z" fill="#08072E"/>
<path d="M486.092 212.671V74.6514H585.322V96.9781H512.252V133.964H577.879V156.29H512.252V212.671H486.092Z" fill="#08072E"/>
<path d="M610.356 90.6637V67.2095H634.938V90.6637H610.356ZM610.356 212.671V106.901H634.938V212.671H610.356Z" fill="#08072E"/>
<path d="M665.157 212.671V67.2095H689.512V212.671H665.157Z" fill="#08072E"/>
<path d="M765.289 215.151C755.56 215.461 745.896 213.451 737.098 209.287C729.626 205.196 723.689 198.784 720.184 191.02C716.35 182.901 714.545 172.302 714.545 159.898C714.545 147.494 716.35 136.669 720.184 128.55C723.63 120.804 729.59 114.447 737.098 110.509C745.841 106.164 755.531 104.071 765.289 104.42C774.217 104.167 783.063 106.184 790.998 110.283C797.948 114.313 803.407 120.484 806.56 127.874C809.942 135.767 811.747 145.916 811.747 158.545V165.762H739.804C739.831 171.45 740.822 177.093 742.736 182.45C744.271 186.623 747.121 190.185 750.855 192.599C755.395 194.875 760.439 195.962 765.514 195.756C768.406 195.729 771.284 195.351 774.084 194.628C776.657 193.855 779.039 192.548 781.075 190.795C783.186 189.146 784.82 186.967 785.811 184.48C787.041 181.713 787.656 178.712 787.616 175.685H811.747C811.928 181.749 810.692 187.772 808.138 193.275C805.949 198.066 802.619 202.247 798.441 205.454C793.959 208.743 788.915 211.188 783.556 212.67C777.609 214.33 771.463 215.164 765.289 215.151V215.151ZM740.03 148.622H786.262C786.294 144.806 785.762 141.006 784.684 137.346C783.861 134.496 782.395 131.873 780.399 129.678C778.716 127.605 776.431 126.108 773.858 125.393C771.101 124.451 768.202 123.993 765.289 124.04C760.73 123.949 756.202 124.794 751.983 126.521C748.543 128.379 745.722 131.2 743.864 134.64C741.805 139.05 740.508 143.778 740.03 148.622V148.622Z" fill="#08072E"/>
<path d="M880.758 215.151C871.248 215.44 861.809 213.428 853.243 209.287C845.95 205.107 840.182 198.707 836.78 191.02C833.172 182.901 831.368 172.301 831.368 159.898C831.045 149.17 832.966 138.493 837.006 128.55C840.277 120.836 846.085 114.47 853.469 110.508C861.896 106.182 871.291 104.086 880.758 104.419C887.174 104.336 893.565 105.249 899.702 107.125C904.929 108.754 909.765 111.441 913.91 115.019C917.847 118.701 920.86 123.259 922.705 128.325C924.891 134.163 925.962 140.359 925.863 146.592H900.829C900.993 142.342 900.223 138.108 898.574 134.188C897.273 131.039 894.868 128.472 891.808 126.971C888.915 125.208 885.655 124.134 882.28 123.832C878.905 123.53 875.506 124.007 872.346 125.228C869.185 126.449 866.347 128.38 864.052 130.872C861.756 133.364 860.064 136.351 859.107 139.601C857.324 145.753 856.488 152.141 856.626 158.545V161.251C856.521 167.653 857.357 174.036 859.107 180.195C860.395 184.734 863.176 188.707 867.001 191.471C871.304 194.201 876.343 195.54 881.434 195.305C885.37 195.456 889.272 194.52 892.71 192.599C895.791 190.947 898.246 188.334 899.702 185.156C901.333 181.31 902.102 177.153 901.957 172.978H925.863C925.943 179.063 924.871 185.108 922.705 190.794C920.803 195.83 917.797 200.377 913.91 204.1C909.844 207.84 904.987 210.615 899.702 212.219C893.608 214.302 887.195 215.294 880.758 215.151V215.151Z" fill="#08072E"/>
<path d="M997.803 215.152C987.858 215.45 977.978 213.443 968.936 209.288C961.17 205.371 954.967 198.929 951.346 191.021C947.16 181.194 945.16 170.575 945.482 159.899C945.482 147.044 947.512 136.67 951.346 128.551C954.917 120.664 961.142 114.279 968.936 110.51C977.923 106.17 987.83 104.081 997.803 104.42C1009.53 104.42 1019.23 106.45 1026.9 110.51C1034.58 114.352 1040.72 120.722 1044.26 128.551C1048.1 136.67 1050.12 147.044 1050.12 159.899C1050.45 170.575 1048.45 181.194 1044.26 191.021C1040.65 198.864 1034.55 205.288 1026.9 209.288C1017.78 213.47 1007.82 215.477 997.803 215.152V215.152ZM997.803 195.08C1003.25 195.322 1008.65 193.991 1013.36 191.247C1017.55 188.664 1020.67 184.662 1022.16 179.97C1024.12 173.931 1025.04 167.6 1024.87 161.252V158.32C1025.04 151.972 1024.12 145.642 1022.16 139.602C1020.62 134.938 1017.51 130.952 1013.36 128.326C1008.65 125.581 1003.25 124.25 997.803 124.492C992.359 124.276 986.964 125.605 982.242 128.326C978.165 130.977 975.135 134.963 973.672 139.602C971.71 145.642 970.795 151.972 970.966 158.32V161.252C970.795 167.6 971.71 173.931 973.672 179.97C975.064 184.646 978.11 188.654 982.242 191.247C986.964 193.968 992.359 195.297 997.803 195.08Z" fill="#08072E"/>
<path d="M1075.16 90.6637V67.2095H1099.51V90.6637H1075.16ZM1075.16 212.671V106.901H1099.51V212.671H1075.16Z" fill="#08072E"/>
<path d="M1129.74 212.672V106.902H1150.26L1152.29 120.884H1153.64C1156.15 117.7 1159.03 114.823 1162.21 112.314C1169.63 107.165 1178.44 104.411 1187.47 104.421C1193.59 104.37 1199.66 105.599 1205.28 108.029C1210.51 110.511 1214.79 114.628 1217.46 119.757C1220.7 126.419 1222.25 133.778 1221.97 141.181V212.672H1197.17V145.692C1197.26 142.554 1196.81 139.423 1195.81 136.445C1195.09 134.116 1193.77 132.017 1191.98 130.356C1190.29 128.708 1188.18 127.54 1185.89 126.973C1183.23 126.315 1180.5 126.011 1177.77 126.071C1173.57 125.965 1169.42 127.06 1165.82 129.228C1162.33 131.402 1159.46 134.43 1157.47 138.024C1155.35 142.052 1154.26 146.549 1154.32 151.104V212.672H1129.74Z" fill="#08072E"/>
<path d="M486.092 404.366V266.347H585.322V288.673H512.252V325.659H577.879V347.986H512.252V404.366H486.092Z" fill="#08072E"/>
<path d="M651.4 406.847C641.454 407.145 631.574 405.139 622.533 400.984C614.767 397.066 608.564 390.625 604.942 382.716C600.757 372.889 598.756 362.271 599.079 351.594C599.079 338.74 601.108 328.366 604.942 320.247C608.513 312.359 614.739 305.975 622.533 302.205C631.52 297.866 641.427 295.776 651.4 296.116C663.127 296.116 672.825 298.146 680.493 302.205C688.18 306.047 694.312 312.418 697.858 320.247C701.692 328.366 703.722 338.74 703.722 351.594C704.044 362.271 702.043 372.889 697.858 382.716C694.25 390.559 688.143 396.983 680.493 400.984C671.38 405.165 661.421 407.172 651.4 406.847V406.847ZM651.4 386.776C656.848 387.017 662.249 385.686 666.961 382.942C671.098 380.301 674.203 376.321 675.757 371.666C677.719 365.626 678.634 359.296 678.463 352.947V350.016C678.634 343.668 677.719 337.337 675.757 331.297C674.14 326.676 671.05 322.714 666.961 320.021C662.158 317.512 656.819 316.201 651.4 316.201C645.981 316.201 640.642 317.512 635.839 320.021C631.761 322.673 628.732 326.659 627.269 331.297C625.115 337.295 624.12 343.647 624.337 350.016V352.947C624.12 359.316 625.115 365.668 627.269 371.666C628.661 376.341 631.707 380.349 635.839 382.942C640.551 385.686 645.953 387.017 651.4 386.776V386.776Z" fill="#08072E"/>
<path d="M762.359 406.846C751.985 406.846 743.866 404.14 737.326 398.502C730.785 392.863 727.854 383.391 727.854 370.086V298.595H752.436V365.575C752.338 368.713 752.796 371.843 753.789 374.822C754.437 377.186 755.771 379.304 757.623 380.911C759.316 382.559 761.418 383.727 763.712 384.294C766.287 384.965 768.945 385.269 771.605 385.196C775.883 385.332 780.111 384.236 783.783 382.038C787.331 379.844 790.216 376.725 792.128 373.017C794.255 369.07 795.342 364.646 795.285 360.163V298.595H819.867V404.365H799.57L797.54 390.383H795.962C793.575 393.673 790.682 396.565 787.392 398.953C784.057 401.448 780.319 403.355 776.341 404.591C771.85 406.16 767.116 406.924 762.359 406.846V406.846Z" fill="#08072E"/>
<path d="M849.861 404.365V298.595H870.383L872.413 312.578H873.992C876.359 309.345 879.168 306.46 882.336 304.008C889.752 298.859 898.567 296.104 907.595 296.115C913.72 296.063 919.788 297.292 925.411 299.723C930.637 302.204 934.912 306.321 937.589 311.45C940.829 318.113 942.379 325.471 942.1 332.875V404.365H917.292V337.385C917.39 334.247 916.932 331.117 915.939 328.139C915.288 325.829 914.044 323.73 912.331 322.05C910.517 320.446 908.355 319.288 906.016 318.667C903.441 317.995 900.783 317.691 898.123 317.765C893.912 317.592 889.746 318.693 886.17 320.922C882.569 323.023 879.607 326.063 877.6 329.717C875.472 333.746 874.387 338.242 874.443 342.798V404.365H849.861Z" fill="#08072E"/>
<path d="M1008.18 406.845C1000.33 407.005 992.603 404.975 985.851 400.982C979.225 396.675 974.164 390.349 971.417 382.94C967.679 372.846 965.918 362.127 966.23 351.367C965.895 340.679 967.657 330.029 971.417 320.019C974.309 312.693 979.338 306.407 985.851 301.977C992.158 298.106 999.423 296.075 1006.82 296.114C1011.3 296.14 1015.77 296.669 1020.13 297.692C1023.95 298.651 1027.55 300.335 1030.73 302.654C1033.85 304.835 1036.53 307.59 1038.62 310.773H1039.98V258.903H1064.33V404.365H1044.04L1042.01 390.382H1040.65C1037.36 395.677 1032.68 399.968 1027.12 402.786C1021.19 405.553 1014.72 406.94 1008.18 406.845V406.845ZM1015.85 385.646C1020.73 385.961 1025.58 384.609 1029.6 381.812C1033.29 379.059 1035.98 375.18 1037.27 370.762C1039.22 365.108 1040.14 359.149 1039.98 353.171V350.465C1039.96 345.76 1039.43 341.072 1038.4 336.482C1037.71 332.694 1036.25 329.086 1034.11 325.883C1032.2 323.191 1029.64 321.021 1026.67 319.568C1023.31 317.93 1019.59 317.155 1015.85 317.313C1010.85 317.013 1005.88 318.274 1001.64 320.921C997.846 323.473 995.118 327.323 993.97 331.746C992.183 337.744 991.346 343.983 991.489 350.239V353.171C991.38 359.351 992.217 365.511 993.97 371.438C995.241 375.804 997.941 379.616 1001.64 382.263C1005.95 384.729 1010.88 385.903 1015.85 385.646V385.646Z" fill="#08072E"/>
<path d="M1121.84 406.846C1118.43 406.78 1115.03 406.402 1111.69 405.718C1107.73 405.011 1103.92 403.639 1100.42 401.659C1096.81 399.469 1093.85 396.355 1091.85 392.638C1089.34 387.842 1088.1 382.486 1088.24 377.077C1087.97 370.889 1089.6 364.767 1092.9 359.529C1096.21 354.291 1101.03 350.184 1106.73 347.759C1113.4 344.786 1120.46 342.811 1127.7 341.895C1136.53 340.76 1145.42 340.232 1154.32 340.316V331.521C1154.36 328.755 1153.9 326.004 1152.96 323.402C1152.01 320.88 1150.16 318.795 1147.77 317.539C1144.31 315.977 1140.52 315.28 1136.72 315.509C1132.74 315.375 1128.76 315.986 1125 317.313C1122.59 318.114 1120.53 319.703 1119.13 321.824C1118.04 323.413 1117.49 325.31 1117.55 327.236V329.942H1093.88C1093.69 329.283 1093.61 328.597 1093.65 327.913V325.432C1093.57 319.771 1095.49 314.262 1099.06 309.871C1103.01 305.098 1108.26 301.572 1114.17 299.722C1121.33 297.141 1128.9 295.917 1136.5 296.114C1144.59 295.844 1152.64 297.225 1160.18 300.173C1165.96 302.395 1170.87 306.43 1174.16 311.675C1177.43 317.112 1179.08 323.374 1178.9 329.717V379.557C1178.77 380.611 1178.91 381.68 1179.3 382.665C1179.7 383.651 1180.33 384.521 1181.15 385.195C1182.54 386.18 1184.19 386.729 1185.89 386.774H1192.43V403.688L1186.56 405.492C1183.47 406.254 1180.28 406.633 1177.09 406.62C1173.85 406.632 1170.63 406.02 1167.62 404.816C1165.03 403.774 1162.72 402.154 1160.86 400.08C1158.86 397.92 1157.46 395.278 1156.8 392.412H1155.44C1153.07 395.23 1150.34 397.731 1147.32 399.854C1143.94 402.159 1140.21 403.91 1136.27 405.041C1131.56 406.266 1126.71 406.872 1121.84 406.846V406.846ZM1129.28 386.774C1132.89 386.783 1136.48 386.173 1139.88 384.97C1142.79 383.873 1145.43 382.155 1147.61 379.935C1149.79 377.715 1151.47 375.046 1152.51 372.115C1153.8 368.892 1154.42 365.437 1154.32 361.967V357.231C1147.53 357.186 1140.74 357.638 1134.02 358.584C1128.73 359.157 1123.64 360.931 1119.13 363.771C1117.31 364.902 1115.82 366.504 1114.83 368.409C1113.84 370.314 1113.38 372.451 1113.5 374.596C1113.47 376.831 1114.1 379.026 1115.3 380.91C1116.48 382.899 1118.31 384.415 1120.49 385.195C1123.29 386.275 1126.28 386.811 1129.28 386.774Z" fill="#08072E"/>
<path d="M1238.44 406.845C1232.96 407.13 1227.52 405.712 1222.88 402.786C1219.3 400.351 1216.55 396.891 1214.98 392.863C1213.45 388.83 1212.69 384.547 1212.73 380.234V318.666H1200.1V298.595H1213.18L1217.69 269.052H1237.31V298.595H1255.58V318.666H1237.31V377.753C1237.1 380.115 1237.83 382.465 1239.34 384.293C1240.24 385.139 1241.31 385.794 1242.47 386.22C1243.63 386.646 1244.87 386.834 1246.1 386.774H1255.58V403.688L1250.62 405.041L1244.53 406.394L1238.44 406.845Z" fill="#08072E"/>
<path d="M1277.68 282.357V258.902H1302.26V282.357H1277.68ZM1277.68 404.364V298.594H1302.26V404.364H1277.68Z" fill="#08072E"/>
<path d="M1379.39 406.847C1369.44 407.145 1359.56 405.139 1350.52 400.984C1342.76 397.066 1336.55 390.625 1332.93 382.716C1328.75 372.889 1326.74 362.271 1327.07 351.594C1327.07 338.74 1329.1 328.366 1332.93 320.247C1336.5 312.359 1342.73 305.975 1350.52 302.205C1359.51 297.866 1369.41 295.776 1379.39 296.116C1391.11 296.116 1400.81 298.146 1408.48 302.205C1416.17 306.047 1422.3 312.418 1425.85 320.247C1429.9 328.366 1431.71 338.74 1431.71 351.594C1431.71 364.449 1429.9 374.598 1425.85 382.716C1422.24 390.559 1416.13 396.983 1408.48 400.984C1399.37 405.165 1389.41 407.172 1379.39 406.847V406.847ZM1379.39 386.776C1384.84 387.017 1390.24 385.686 1394.95 382.942C1399.14 380.359 1402.26 376.357 1403.74 371.666C1405.71 365.626 1406.62 359.296 1406.45 352.947V350.016C1406.62 343.668 1405.71 337.337 1403.74 331.297C1402.21 326.633 1399.1 322.648 1394.95 320.021C1390.24 317.277 1384.84 315.946 1379.39 316.187C1373.95 316.007 1368.56 317.334 1363.83 320.021C1359.81 322.738 1356.8 326.7 1355.26 331.297C1353.29 337.337 1352.38 343.668 1352.55 350.016V352.947C1352.38 359.296 1353.29 365.626 1355.26 371.666C1356.74 376.296 1359.76 380.277 1363.83 382.942C1368.56 385.629 1373.95 386.956 1379.39 386.776V386.776Z" fill="#08072E"/>
<path d="M1456.74 404.366V298.596H1477.27L1479.3 312.578H1480.65C1483.1 309.34 1485.98 306.456 1489.22 304.008C1492.61 301.465 1496.43 299.555 1500.49 298.37C1504.98 296.781 1509.72 296.017 1514.48 296.115C1520.6 296.064 1526.67 297.293 1532.29 299.723C1537.52 302.205 1541.79 306.322 1544.47 311.451C1547.4 316.863 1548.75 324.08 1548.75 332.875V404.366H1524.17V337.386C1524.27 334.248 1523.81 331.117 1522.82 328.139C1522.01 325.852 1520.7 323.772 1518.99 322.05C1517.23 320.495 1515.15 319.341 1512.9 318.667C1510.24 318.009 1507.51 317.705 1504.78 317.765C1500.57 317.634 1496.42 318.731 1492.83 320.922C1489.27 323.082 1486.32 326.108 1484.26 329.718C1482.21 333.766 1481.2 338.262 1481.33 342.798V404.366H1456.74Z" fill="#08072E"/>
</svg>
