<?xml version="1.0" encoding="UTF-8"?>
<svg width="53px" height="53px" viewBox="0 0 53 53" version="1.1" xmlns="http://www.w3.org/2000/svg" xmlns:xlink="http://www.w3.org/1999/xlink">
    <!-- Generator: Sketch 51.3 (57544) - http://www.bohemiancoding.com/sketch -->
    <title>L4</title>
    <desc>Created with Sketch.</desc>
    <defs></defs>
    <g id="UI" stroke="none" stroke-width="1" fill="none" fill-rule="evenodd">
        <g id="Team" transform="translate(-235.000000, -628.000000)" fill-rule="nonzero">
            <g id="Contributors" transform="translate(217.000000, 433.000000)">
                <g id="Logos-and-Names" transform="translate(0.000000, 197.000000)">
                    <g id="L4" transform="translate(20.000000, 0.000000)">
                        <path d="M0.6,0.5 L48.3,0.5 C48.4,0.5 48.4,0.6 48.4,0.6 L48.4,48.3 C48.4,48.4 48.3,48.4 48.3,48.4 L0.6,48.4 C0.5,48.4 0.5,48.3 0.5,48.3 L0.5,0.6 C0.5,0.6 0.6,0.5 0.6,0.5 Z" id="Shape" stroke="#000000" stroke-width="5" fill="#000000" stroke-linecap="round" stroke-linejoin="round"></path>
                        <path d="M13.3,25.9 C13.3,31.3 13.4,33.6 14.1,34.3 C14.7,34.9 15.7,35.1 18.6,35.1 C20.6,35.1 22.2,35.1 23.1,34 C23.6,33.4 23.9,32.5 24.1,31.8 C24.1,31.5 24.2,31.3 24.4,31.3 C24.6,31.3 24.6,31.4 24.6,31.8 C24.6,32.2 24.4,34.4 24.1,35.5 C23.9,36.3 23.7,36.5 21.7,36.5 C19,36.5 17.1,36.4 15.5,36.4 C13.9,36.3 12.8,36.3 11.7,36.3 L10.2,36.3 C9.5,36.3 8.6,36.4 8.1,36.4 C7.7,36.4 7.5,36.3 7.5,36.1 C7.5,36 7.6,35.9 7.8,35.9 C8.1,35.9 8.6,35.8 8.9,35.8 C9.6,35.7 9.8,34.8 10,33.8 C10.2,32.3 10.2,29.4 10.2,25.8 L10.2,19.4 C10.2,13.7 10.2,12.6 10.1,11.5 C10,10.2 9.7,9.7 8.5,9.4 C8.2,9.3 7.6,9.3 7.2,9.3 C7.1,9.3 6.9,9.2 6.9,9.1 C6.9,8.9 7.1,8.8 7.5,8.8 C9.2,8.8 11.5,8.9 11.7,8.9 C11.9,8.9 14.6,8.8 15.7,8.8 C16.1,8.8 16.3,8.9 16.3,9.1 C16.3,9.2 16.2,9.3 16,9.3 C15.8,9.3 15.2,9.3 14.8,9.4 C13.7,9.6 13.4,10.2 13.3,11.5 C13.2,12.7 13.2,13.7 13.2,19.4 L13.3,25.9 Z M36.9,35.5 L38.3,35.5 C38.8,35.5 39,35.3 39.1,35.3 C39.2,35.3 39.2,35.4 39.2,35.5 C39.2,35.6 39.1,36 39.1,36.2 C39,36.4 39,36.4 38.7,36.4 L37,36.4 L37,39.2 C37,39.8 37.2,40.1 37.8,40.2 C38,40.2 38.4,40.3 38.6,40.3 C38.7,40.3 38.7,40.4 38.7,40.4 C38.7,40.5 38.6,40.5 38.4,40.5 L33.8,40.5 C33.6,40.5 33.5,40.5 33.5,40.4 C33.5,40.3 33.5,40.3 33.6,40.3 L34.5,40.3 C35.1,40.2 35.2,39.8 35.3,39.2 C35.4,38.4 35.3,37 35.3,36.4 L29.7,36.4 C29.5,36.4 29.3,36.4 29.3,36.2 C29.3,36.1 29.4,35.9 29.4,35.8 C29.5,35.7 35.6,27.5 36.2,26.7 C36.3,26.5 36.4,26.4 36.6,26.4 C36.8,26.4 36.8,26.5 36.8,26.7 L36.8,29.5 L36.9,35.5 Z M35.4,28.9 C35.1,29.4 30.9,35 30.6,35.5 L35.4,35.5 L35.4,28.9 Z" id="Shape" fill="#FFFFFF"></path>
                        <circle id="Oval" fill="#FFFFFF" cx="33.7" cy="11.3" r="2.6"></circle>
                    </g>
                </g>
            </g>
        </g>
    </g>
</svg>