<?xml version="1.0" encoding="UTF-8"?>
<svg width="165px" height="36px" viewBox="0 0 165 36" version="1.1" xmlns="http://www.w3.org/2000/svg" xmlns:xlink="http://www.w3.org/1999/xlink">
    <!-- Generator: Sketch 51.3 (57544) - http://www.bohemiancoding.com/sketch -->
    <title>logo+name-orange-74672a8a</title>
    <desc>Created with Sketch.</desc>
    <defs></defs>
    <g id="UI" stroke="none" stroke-width="1" fill="none" fill-rule="evenodd">
        <g id="Standards" transform="translate(-832.000000, -855.000000)" fill-rule="nonzero">
            <g id="Logos" transform="translate(315.000000, 767.000000)">
                <g id="logo+name-orange-74672a8a" transform="translate(517.000000, 88.000000)">
                    <path d="M46.0346848,25.4817518 L40,25.4817518 C40.1757675,24.1386861 40.2343567,22.9124088 40.2343567,21.0729927 L40.2343567,12.080292 C40.2343567,9.86131387 40.1757675,8.81021898 40,7.67153285 L45.8003281,7.67153285 L45.8003281,8.89781022 C45.8003281,9.01459854 45.8003281,9.01459854 45.7710335,9.30656934 L45.7710335,9.59854015 C47.2650574,7.96350365 49.0520272,7.20437956 51.3662995,7.20437956 C52.889618,7.20437956 54.1492852,7.55474453 55.1160066,8.25547445 C55.6433091,8.6350365 55.936255,8.98540146 56.3170846,9.71532847 C58.133349,7.93430657 59.9203187,7.17518248 62.4689477,7.17518248 C66.6580736,7.17518248 68.7965784,9.45255474 68.7965784,13.8613139 L68.7965784,21.1021898 C68.7965784,22.9124088 68.8551676,24.1094891 69.0309351,25.4817518 L62.9376611,25.4817518 C63.1134286,24.1094891 63.1720178,23.0583942 63.1720178,21.0729927 L63.1720178,15.0583942 C63.1720178,12.8686131 62.5275369,12.0218978 60.8577455,12.0218978 C59.3637216,12.0218978 58.0161706,13.189781 57.283806,15.1459854 L57.283806,21.1021898 C57.283806,22.8540146 57.3423951,24.080292 57.5181626,25.4817518 L51.4248887,25.4817518 C51.6006562,24.1678832 51.6592454,22.9416058 51.6592454,21.0729927 L51.6592454,15.0583942 C51.6592454,13.8321168 51.542067,13.2773723 51.1612374,12.7810219 C50.838997,12.3138686 50.2531052,12.0510949 49.5500352,12.0510949 C47.9681275,12.0510949 46.6205765,13.189781 45.8003281,15.1751825 L45.8003281,21.0729927 C45.8003281,22.9124088 45.8589173,24.0510949 46.0346848,25.4817518 Z M83.8247012,13.9489051 L83.8247012,13.2773723 C83.8247012,11.8759124 82.9751582,11.2335766 81.0417155,11.2335766 C79.166862,11.2335766 78.170846,11.8467153 77.7314272,13.2773723 L72.1361612,12.3722628 C72.722053,10.649635 73.3665339,9.71532847 74.5969065,8.83941606 C76.1788142,7.72992701 78.3466135,7.17518248 81.1881884,7.17518248 C83.3559878,7.17518248 85.465198,7.58394161 86.6076869,8.19708029 C88.4825404,9.2189781 89.3027888,10.8248175 89.3027888,13.4525547 L89.3027888,21.3357664 C89.3027888,23.1167883 89.361378,24.1678832 89.5078509,25.4817518 L83.8247012,25.4817518 L83.8247012,24.1386861 C82.1842044,25.3941606 80.5437075,25.8905109 78.1415514,25.8905109 C75.9151629,25.8905109 74.2453715,25.3649635 73.073588,24.2846715 C72.0189829,23.3211679 71.4623858,21.919708 71.4623858,20.3138686 C71.4623858,18.4744526 72.1947504,17.0145985 73.6008906,16.0510949 C75.0949145,15 77.0576517,14.3868613 79.6941645,14.1532847 C80.8366534,14.0364964 81.715491,14.0072993 83.8247012,13.9489051 Z M83.8247012,18.5036496 L83.8247012,17.6861314 C81.217483,17.7445255 79.9578158,17.8905109 78.7567378,18.270073 C77.7021326,18.620438 77.0576517,19.350365 77.0576517,20.1970803 C77.0576517,21.2481752 77.9364893,21.8613139 79.4598078,21.8613139 C80.6608859,21.8613139 81.9791423,21.4233577 82.7700961,20.7518248 C83.4438716,20.1678832 83.8247012,19.379562 83.8247012,18.5036496 Z M92.3201312,27.7591241 L96.5385517,24.9854015 C97.5638622,26.2992701 99.0578861,26.9708029 100.991329,26.9708029 C102.602531,26.9708029 103.862198,26.5328467 104.565268,25.6861314 C105.180455,24.9854015 105.444106,24.1094891 105.502695,22.5620438 C104.008671,23.9051095 102.426764,24.4890511 100.17108,24.4890511 C95.0738224,24.4890511 91.8514179,21.1605839 91.8514179,15.8467153 C91.8514179,10.649635 95.1617061,7.23357664 100.17108,7.23357664 C102.33888,7.23357664 103.920787,7.72992701 105.502695,8.9270073 L105.502695,7.67153285 L111.244434,7.67153285 C111.068667,8.98540146 111.010077,10.0072993 111.010077,11.729927 L111.010077,21.9781022 C111.010077,25.4817518 110.014061,27.8467153 107.96344,29.2773723 C106.381533,30.3868613 103.920787,31 100.991329,31 C97.0072651,31 94.3707523,30.0072993 92.3201312,27.7591241 Z M97.4173893,15.8759124 C97.4173893,18.5620438 98.9407078,20.2846715 101.25498,20.2846715 C103.657136,20.2846715 105.385517,18.4452555 105.385517,15.8467153 C105.385517,13.2481752 103.657136,11.379562 101.284275,11.379562 C98.9407078,11.379562 97.4173893,13.1605839 97.4173893,15.8759124 Z M120.384345,25.4817518 L114.34966,25.4817518 C114.525428,24.1386861 114.584017,22.9124088 114.584017,21.0729927 L114.584017,12.080292 C114.584017,9.86131387 114.525428,8.81021898 114.34966,7.67153285 L120.149988,7.67153285 L120.149988,8.89781022 C120.149988,9.01459854 120.149988,9.01459854 120.120694,9.30656934 L120.120694,9.59854015 C121.614718,7.96350365 123.401687,7.20437956 125.71596,7.20437956 C127.239278,7.20437956 128.498945,7.55474453 129.465667,8.25547445 C129.992969,8.6350365 130.285915,8.98540146 130.666745,9.71532847 C132.483009,7.93430657 134.269979,7.17518248 136.818608,7.17518248 C141.007734,7.17518248 143.146239,9.45255474 143.146239,13.8613139 L143.146239,21.1021898 C143.146239,22.9124088 143.204828,24.1094891 143.380595,25.4817518 L137.287321,25.4817518 C137.463089,24.1094891 137.521678,23.0583942 137.521678,21.0729927 L137.521678,15.0583942 C137.521678,12.8686131 136.877197,12.0218978 135.207406,12.0218978 C133.713382,12.0218978 132.365831,13.189781 131.633466,15.1459854 L131.633466,21.1021898 C131.633466,22.8540146 131.692055,24.080292 131.867823,25.4817518 L125.774549,25.4817518 C125.950316,24.1678832 126.008906,22.9416058 126.008906,21.0729927 L126.008906,15.0583942 C126.008906,13.8321168 125.891727,13.2773723 125.510898,12.7810219 C125.188657,12.3138686 124.602765,12.0510949 123.899695,12.0510949 C122.317788,12.0510949 120.970237,13.189781 120.149988,15.1751825 L120.149988,21.0729927 C120.149988,22.9124088 120.208577,24.0510949 120.384345,25.4817518 Z M155.303492,26.1532847 C149.41528,26.1532847 145.665573,22.4160584 145.665573,16.5474453 C145.665573,10.7080292 149.41528,7 155.332787,7 C161.250293,7 165,10.7080292 165,16.4890511 C165,22.2992701 161.133115,26.1532847 155.303492,26.1532847 Z M155.362081,11.379562 C152.784157,11.379562 151.260839,13.3065693 151.260839,16.5182482 C151.260839,19.7591241 152.784157,21.7153285 155.332787,21.7153285 C157.881416,21.7153285 159.346145,19.8175182 159.346145,16.5766423 C159.346145,13.3065693 157.852121,11.379562 155.362081,11.379562 Z" id="magmo" fill="#4A4A4A"></path>
                    <path d="M14.3415558,34.7499686 C13.6786472,32.1406914 17.3368131,28.3303508 18.3565569,26.1491655 C12.0790621,32.471754 6.5085731,29.6317593 1.92519946,36 C3.31098357,23.649736 6.22601332,22.1982596 8.28839154,16.6507153 C6.37871676,18.6841247 4.15767551,20.0861957 0,19.7803111 C4.14167761,17.1477777 6.16867031,8.88407923 8.5698342,6.37102296 C8.57407273,6.36658693 8.57831902,6.36216453 8.58257309,6.35775582 L8.57775591,6.35294361 C11.7526964,1.69209708 17.4419441,-0.877554866 23.2684137,0.273384355 C31.126467,1.8256351 36.2584343,9.55762145 34.7309834,17.5432592 C33.9937839,21.3973987 31.8401028,24.6062261 28.9255218,26.7203664 C21.7044797,32.2360907 17.7072255,29.1857795 14.3415558,34.7499686 Z M19.171922,21.4161756 C21.1491208,21.1496965 24.1406959,19.7070953 25.3104789,18.1220276 C25.7759564,17.4480469 26.1126697,16.6659373 26.2772658,15.8054156 C26.9039123,12.5292565 24.7984898,9.35715952 21.5746731,8.7203387 C19.4131552,8.29336049 17.297671,9.11452211 15.9446996,10.6988383 C13.5310725,13.7438718 16.00667,16.9570014 12.7311407,22.6439236 C16.2348025,22.6273709 19.6982971,19.0222773 21.2096138,17.580149 C21.1337555,18.1762183 20.5338509,20.2223143 19.171922,21.4161756 Z" id="Combined-Shape-Copy-3" fill="#BA4B2B"></path>
                </g>
            </g>
        </g>
    </g>
</svg>