<?xml version="1.0" encoding="UTF-8"?>
<svg width="116px" height="26px" viewBox="0 0 116 26" version="1.1" xmlns="http://www.w3.org/2000/svg" xmlns:xlink="http://www.w3.org/1999/xlink">
    <!-- Generator: Sketch 51.3 (57544) - http://www.bohemiancoding.com/sketch -->
    <title>PERUN</title>
    <desc>Created with Sketch.</desc>
    <defs></defs>
    <g id="UI" stroke="none" stroke-width="1" fill="none" fill-rule="evenodd">
        <g id="Standards" transform="translate(-741.000000, -942.000000)" fill="#1A1A1A">
            <g id="Logos" transform="translate(315.000000, 767.000000)">
                <path d="M444.83252,182.961426 C444.83252,185.752781 444.009367,187.908928 442.363037,189.429932 C440.716707,190.950935 438.37827,191.711426 435.347656,191.711426 L433.450684,191.711426 L433.450684,200 L426.700195,200 L426.700195,175.014648 L435.347656,175.014648 C438.503597,175.014648 440.873364,175.703932 442.457031,177.08252 C444.040698,178.461107 444.83252,180.420723 444.83252,182.961426 Z M433.450684,186.208496 L434.681152,186.208496 C435.695155,186.208496 436.501218,185.923668 437.099365,185.354004 C437.697513,184.78434 437.996582,183.998215 437.996582,182.995605 C437.996582,181.309399 437.062347,180.466309 435.193848,180.466309 L433.450684,180.466309 L433.450684,186.208496 Z M463.648438,200 L448.814453,200 L448.814453,175.014648 L463.648438,175.014648 L463.648438,180.432129 L455.564941,180.432129 L455.564941,184.362793 L463.050293,184.362793 L463.050293,189.780273 L455.564941,189.780273 L455.564941,194.49707 L463.648438,194.49707 L463.648438,200 Z M474.773926,190.908203 L474.773926,200 L468.023438,200 L468.023438,175.014648 L476.209473,175.014648 C482.999871,175.014648 486.39502,177.475561 486.39502,182.397461 C486.39502,185.291356 484.982273,187.530103 482.156738,189.11377 L489.437012,200 L481.780762,200 L476.48291,190.908203 L474.773926,190.908203 Z M474.773926,185.83252 L476.038574,185.83252 C478.396984,185.83252 479.576172,184.790049 479.576172,182.705078 C479.576172,180.984692 478.419771,180.124512 476.106934,180.124512 L474.773926,180.124512 L474.773926,185.83252 Z M512.952637,175.014648 L512.952637,190.053711 C512.952637,193.323584 512.026946,195.855704 510.175537,197.650146 C508.324128,199.444589 505.655291,200.341797 502.168945,200.341797 C498.762353,200.341797 496.144785,199.470224 494.316162,197.727051 C492.48754,195.983878 491.573242,193.477393 491.573242,190.20752 L491.573242,175.014648 L498.35791,175.014648 L498.35791,189.677734 C498.35791,191.443694 498.68831,192.725419 499.349121,193.522949 C500.009932,194.320479 500.984043,194.719238 502.271484,194.719238 C503.650072,194.719238 504.649818,194.323328 505.270752,193.531494 C505.891686,192.739661 506.202148,191.443694 506.202148,189.643555 L506.202148,175.014648 L512.952637,175.014648 Z M541.988281,200 L533.135742,200 L524.009766,182.397461 L523.855957,182.397461 C524.072429,185.166029 524.180664,187.279452 524.180664,188.737793 L524.180664,200 L518.199219,200 L518.199219,175.014648 L527.017578,175.014648 L536.109375,192.37793 L536.211914,192.37793 C536.052408,189.860013 535.972656,187.837735 535.972656,186.311035 L535.972656,175.014648 L541.988281,175.014648 L541.988281,200 Z" id="PERUN"></path>
            </g>
        </g>
    </g>
</svg>
