<?xml version="1.0" encoding="UTF-8"?>
<svg width="96px" height="34px" viewBox="0 0 96 34" version="1.1" xmlns="http://www.w3.org/2000/svg" xmlns:xlink="http://www.w3.org/1999/xlink">
    <!-- Generator: Sketch 51.3 (57544) - http://www.bohemiancoding.com/sketch -->
    <title>PISA</title>
    <desc>Created with Sketch.</desc>
    <defs></defs>
    <g id="UI" stroke="none" stroke-width="1" fill="none" fill-rule="evenodd">
        <g id="Standards" transform="translate(-1246.000000, -1011.000000)" fill="#1A1A1A">
            <path d="M1255,1031.85 C1253.85,1031.85 1252.75,1031.85 1251.75,1031.8 L1251.75,1044.25 L1246,1044.25 L1246,1011.25 C1248,1011.1 1251.4,1011 1253.95,1011 C1261.45,1011 1266.45,1014.7 1266.45,1021.6 C1266.45,1027.15 1262.8,1031.85 1255,1031.85 Z M1254.75,1015.8 C1253.7,1015.8 1252.7,1015.8 1251.75,1015.85 L1251.75,1027 C1252.7,1027.05 1253.75,1027.05 1254.85,1027.05 C1258.45,1027.05 1260.3,1025 1260.3,1021.2 C1260.3,1018 1258.85,1015.8 1254.75,1015.8 Z M1278.3,1011.25 L1278.3,1044.25 L1272.55,1044.25 L1272.55,1011.25 L1278.3,1011.25 Z M1291.3,1019.2 C1291.3,1022 1293.9,1022.95 1297.75,1024.3 C1302.55,1026 1307.75,1028.35 1307.75,1035.2 C1307.75,1042.4 1302.05,1044.85 1295.9,1044.85 C1291.55,1044.85 1287.5,1043.6 1284.8,1042.1 L1286.3,1036.7 C1288.8,1038.6 1291.9,1040.05 1295.85,1040.05 C1300.1,1040.05 1301.95,1038.4 1301.95,1035.9 C1301.95,1032.05 1297.65,1030.55 1295.2,1029.75 C1291,1028.35 1285.75,1026.5 1285.75,1019.65 C1285.75,1013.25 1290.4,1011 1296.35,1011 C1300,1011 1303.7,1011.85 1306,1012.9 L1304.65,1018.2 C1302.3,1016.65 1298.8,1015.75 1296.15,1015.75 C1293.2,1015.75 1291.3,1016.85 1291.3,1019.2 Z M1327.65,1011.25 L1341.75,1044.25 L1335.5,1044.25 L1331.75,1034.65 L1319.3,1034.65 L1315.9,1044.25 L1309.9,1044.25 L1322.7,1011.25 L1327.65,1011.25 Z M1325.2,1018 L1320.9,1030.15 L1329.95,1030.15 L1325.2,1018 Z" id="PISA"></path>
        </g>
    </g>
</svg>