<?xml version="1.0" encoding="UTF-8"?>
<svg width="150px" height="25px" viewBox="0 0 150 25" version="1.1" xmlns="http://www.w3.org/2000/svg" xmlns:xlink="http://www.w3.org/1999/xlink">
    <!-- Generator: Sketch 51.3 (57544) - http://www.bohemiancoding.com/sketch -->
    <title>Prototypal</title>
    <desc>Created with Sketch.</desc>
    <defs></defs>
    <g id="UI" stroke="none" stroke-width="1" fill="none" fill-rule="evenodd">
        <g id="Team" transform="translate(-338.000000, -642.000000)">
            <g id="Contributors" transform="translate(217.000000, 433.000000)">
                <g id="Logos-and-Names" transform="translate(0.000000, 197.000000)">
                    <g id="Prototypal" transform="translate(121.000000, 12.000000)">
                        <g id="#Logo-/-Color">
                            <g>
                                <path d="M146.546385,18.7598863 L150.258509,18.7598863 L150.258509,0.00569475493 L146.546385,0.00569475493 L146.546385,18.7598863 Z M137.207367,10.3244303 C137.893794,10.2402121 138.384803,10.1335357 138.679572,10.0068073 C139.209172,9.78623582 139.474382,9.44214429 139.474382,8.97613688 C139.474382,8.40746347 139.272395,8.01524725 138.868422,7.79948822 C138.464448,7.58292712 137.872446,7.47464657 137.090773,7.47464657 C136.213034,7.47464657 135.592293,7.6863952 135.227732,8.11069455 C134.967448,8.42430711 134.794199,8.84860645 134.707164,9.38279051 L131.125592,9.38279051 C131.203595,8.17004833 131.550914,7.17386726 132.166728,6.39344521 C133.148745,5.17188017 134.833611,4.5614987 137.221326,4.5614987 C138.774818,4.5614987 140.155882,4.86227801 141.362877,5.4646387 C142.569051,6.06619732 143.173369,7.20354415 143.173369,8.87427295 L143.173369,15.2355548 C143.173369,15.6766978 143.182401,16.2108819 143.198823,16.8389091 C143.225097,17.3137393 143.298995,17.6361748 143.420515,17.8054133 C143.542036,17.9754538 143.725138,18.1150154 143.968179,18.2257022 L143.968179,18.7598863 L139.930084,18.7598863 C139.816774,18.479961 139.738771,18.2168793 139.695254,17.9714434 C139.652558,17.7252054 139.617251,17.4452802 139.590976,17.1316676 C139.078619,17.6746745 138.48908,18.1366715 137.819896,18.5184607 C137.021802,18.9676245 136.117788,19.1930085 135.110317,19.1930085 C133.825319,19.1930085 132.764478,18.8344795 131.926971,18.1174217 C131.088644,17.4011659 130.669069,16.3849328 130.669069,15.0703267 C130.669069,13.3659106 131.342359,12.1315124 132.688117,11.367934 C133.426272,10.9524575 134.511746,10.6556885 135.944539,10.4776272 L137.207367,10.3244303 Z M139.460424,12.0168152 C139.226415,12.1611892 138.989942,12.2774906 138.751006,12.3665213 C138.512071,12.4555519 138.185279,12.538166 137.768168,12.6151655 L136.933946,12.7675603 C136.153094,12.9031115 135.592293,13.0683396 135.254007,13.2640467 C134.680889,13.5945029 134.394331,14.1078329 134.394331,14.8032347 C134.394331,15.422439 134.570043,15.8699987 134.922288,16.1451115 C135.273713,16.4210263 135.701498,16.5589838 136.204823,16.5589838 C137.003738,16.5589838 137.740251,16.3295894 138.41272,15.8716028 C139.085188,15.4136162 139.43497,14.5786528 139.460424,13.3659106 L139.460424,12.0168152 Z M127.224619,6.38061196 C128.374959,7.57651049 128.950539,9.33225958 128.950539,11.6478592 C128.950539,14.0909893 128.388096,15.9526127 127.26321,17.2335315 C126.139145,18.5144503 124.690751,19.1545087 122.919671,19.1545087 C121.79068,19.1545087 120.853001,18.8785938 120.106635,18.3275661 C119.698556,18.0219744 119.299509,17.576821 118.907851,16.9913039 L118.907851,24.2180281 L115.235139,24.2180281 L115.235139,4.8919549 L118.790436,4.8919549 L118.790436,6.94046251 C119.190304,6.33810182 119.615626,5.86327155 120.067223,5.51516963 C120.892413,4.89596529 121.872788,4.58636312 123.010812,4.58636312 C124.669403,4.58636312 126.074279,5.18471343 127.224619,6.38061196 Z M124.371349,8.98897013 C123.872951,8.16603794 123.063361,7.75457185 121.942581,7.75457185 C120.597644,7.75457185 119.672281,8.37778657 119.168135,9.62501811 C118.907851,10.2867326 118.77812,11.1265084 118.77812,12.1443456 C118.77812,13.7557206 119.216579,14.888255 120.092677,15.5411466 C120.614065,15.9229358 121.2307,16.1138304 121.942581,16.1138304 C122.976326,16.1138304 123.763747,15.7232184 124.306484,14.9427963 C124.849221,14.1623743 125.120179,13.123683 125.120179,11.8259206 C125.120179,10.7575525 124.87139,9.81110024 124.371349,8.98897013 Z M101.077175,21.4195774 L101.546835,21.4444419 C101.911397,21.4620876 102.258716,21.4492543 102.587971,21.4067442 C102.918047,21.364234 103.195574,21.2663805 103.422193,21.1139857 C103.638959,20.9696116 103.840125,20.6688323 104.027332,20.2108456 C104.21454,19.7520569 104.29008,19.4729337 104.254773,19.3710698 L99.0458112,4.8919549 L103.174225,4.8919549 L106.27382,15.1216597 L109.205093,4.8919549 L113.151226,4.8919549 L108.280551,18.531294 C107.342052,21.1605062 106.599791,22.7911311 106.052948,23.4231687 C105.506106,24.0552063 104.4116,24.3712251 102.771073,24.3712251 C102.440176,24.3712251 102.175786,24.3688188 101.976263,24.3648084 C101.776739,24.360798 101.477043,24.3455586 101.077175,24.3198921 L101.077175,21.4195774 Z M90.1624953,7.602177 L90.1624953,5.01948532 L92.1421307,5.01948532 L92.1421307,1.15106237 L95.8156638,1.15106237 L95.8156638,5.01948532 L98.1212698,5.01948532 L98.1212698,7.602177 L95.8156638,7.602177 L95.8156638,14.9299631 C95.8156638,15.4986365 95.8895615,15.853155 96.0373567,15.9927166 C96.1843309,16.1330803 96.6359275,16.2028611 97.3913255,16.2028611 C97.5046352,16.2028611 97.6236924,16.2004549 97.7501395,16.1964445 C97.8757655,16.1924341 97.9989282,16.1860174 98.1212698,16.1771946 L98.1212698,18.8874167 L96.3625063,18.9507809 C94.6078482,19.0101346 93.4098855,18.7133657 92.7677972,18.0604741 C92.3506862,17.6449976 92.1421307,17.0041372 92.1421307,16.1394969 L92.1421307,7.602177 L90.1624953,7.602177 Z M87.1671782,17.073918 C85.9692155,18.520867 84.1496917,19.2435394 81.7094278,19.2435394 C79.269985,19.2435394 77.4504612,18.520867 76.2524986,17.073918 C75.0545359,15.6277711 74.454323,13.8872614 74.454323,11.8515871 C74.454323,9.8496 75.0545359,8.11470494 76.2524986,6.64770399 C77.4504612,5.17990096 79.269985,4.44680152 81.7094278,4.44680152 C84.1496917,4.44680152 85.9692155,5.17990096 87.1671782,6.64770399 C88.3651408,8.11470494 88.9645327,9.8496 88.9645327,11.8515871 C88.9645327,13.8872614 88.3651408,15.6277711 87.1671782,17.073918 Z M84.1973146,15.0703267 C84.7794637,14.3155712 85.0701277,13.2423906 85.0701277,11.8515871 C85.0701277,10.4599815 84.7794637,9.38920713 84.1973146,8.63846198 C83.6159866,7.88771682 82.7817645,7.51314632 81.6971115,7.51314632 C80.6108164,7.51314632 79.7757732,7.88771682 79.1895187,8.63846198 C78.6032642,9.38920713 78.310137,10.4599815 78.310137,11.8515871 C78.310137,13.2423906 78.6032642,14.3155712 79.1895187,15.0703267 C79.7757732,15.8250823 80.6108164,16.2028611 81.6971115,16.2028611 C82.7817645,16.2028611 83.6159866,15.8250823 84.1973146,15.0703267 Z M64.9855736,7.602177 L64.9855736,5.01948532 L66.965209,5.01948532 L66.965209,1.15106237 L70.6387421,1.15106237 L70.6387421,5.01948532 L72.9443481,5.01948532 L72.9443481,7.602177 L70.6387421,7.602177 L70.6387421,14.9299631 C70.6387421,15.4986365 70.7126398,15.853155 70.8596139,15.9927166 C71.0074092,16.1330803 71.4590058,16.2028611 72.2144038,16.2028611 C72.3277135,16.2028611 72.4467708,16.2004549 72.5723967,16.1964445 C72.6988438,16.1924341 72.8220065,16.1860174 72.9443481,16.1771946 L72.9443481,18.8874167 L71.1855846,18.9507809 C69.4317476,19.0101346 68.2329638,18.7133657 67.5908755,18.0604741 C67.1737645,17.6449976 66.965209,17.0041372 66.965209,16.1394969 L66.965209,7.602177 L64.9855736,7.602177 Z M61.9902565,17.073918 C60.7922938,18.520867 58.97277,19.2435394 56.5325061,19.2435394 C54.0930633,19.2435394 52.2743606,18.520867 51.0755769,17.073918 C49.8776142,15.6277711 49.2782224,13.8872614 49.2782224,11.8515871 C49.2782224,9.8496 49.8776142,8.11470494 51.0755769,6.64770399 C52.2743606,5.17990096 54.0930633,4.44680152 56.5325061,4.44680152 C58.97277,4.44680152 60.7922938,5.17990096 61.9902565,6.64770399 C63.1890402,8.11470494 63.787611,9.8496 63.787611,11.8515871 C63.787611,13.8872614 63.1890402,15.6277711 61.9902565,17.073918 Z M59.021214,15.0703267 C59.602542,14.3155712 59.893206,13.2423906 59.893206,11.8515871 C59.893206,10.4599815 59.602542,9.38920713 59.021214,8.63846198 C58.4390649,7.88771682 57.6056639,7.51314632 56.5201899,7.51314632 C55.4338947,7.51314632 54.5988515,7.88771682 54.012597,8.63846198 C53.4263425,9.38920713 53.1340363,10.4599815 53.1340363,11.8515871 C53.1340363,13.2423906 53.4263425,14.3155712 54.012597,15.0703267 C54.5988515,15.8250823 55.4338947,16.2028611 56.5201899,16.2028611 C57.6056639,16.2028611 58.4390649,15.8250823 59.021214,15.0703267 Z M47.65658,4.56711324 C47.7042029,4.57192571 47.8109439,4.57834234 47.9751609,4.58636312 L47.9751609,8.30158915 C47.7411517,8.27592265 47.5325962,8.25907901 47.3511365,8.25105823 C47.1680346,8.24223537 47.0202393,8.23822498 46.9077507,8.23822498 C45.4141975,8.23822498 44.411653,8.71305525 43.8992962,9.66271578 C43.6127376,10.1977019 43.4690478,11.019832 43.4690478,12.1315124 L43.4690478,18.7598863 L39.7306489,18.7598863 L39.7306489,4.8919549 L43.2736296,4.8919549 L43.2736296,7.30941847 C43.8467467,6.38462235 44.3459663,5.75258476 44.7712882,5.4133057 C45.466747,4.84543436 46.3691191,4.5614987 47.4808678,4.5614987 C47.55066,4.5614987 47.6089571,4.56310285 47.65658,4.56711324 Z M35.3419509,10.6428553 C34.1957166,11.5588286 32.5592947,12.0168152 30.431043,12.0168152 L26.3543572,12.0168152 L26.3543572,18.7598863 L22.3696329,18.7598863 L22.3696329,0.00649683308 L30.7307389,0.00649683308 C32.6586459,0.00649683308 34.1957166,0.489347885 35.3419509,1.45665414 C36.4881852,2.42315833 37.0604813,3.92063825 37.0604813,5.94829183 C37.0604813,8.16202755 36.4881852,9.72688204 35.3419509,10.6428553 Z M32.300653,3.88695096 C31.7751587,3.47147448 31.0386457,3.26293416 30.0927561,3.26293416 L26.3543572,3.26293416 L26.3543572,8.78524228 L30.0927561,8.78524228 C31.0386457,8.78524228 31.7751587,8.56066039 32.300653,8.11069455 C32.8261472,7.66153078 33.0888943,6.9484833 33.0888943,5.97315626 C33.0888943,4.99782921 32.8261472,4.30242745 32.300653,3.88695096 Z" id="Fill-1" fill="#5E6473" fill-rule="nonzero"></path>
                                <g id="Dots" transform="translate(0.000000, 0.802078)" fill="#55F3A4" fill-rule="nonzero">
                                    <ellipse id="Oval" cx="9.44247463" cy="2.80727356" rx="2.87379663" ry="2.80727356"></ellipse>
                                    <ellipse id="Oval-Copy" cx="2.87379663" cy="8.42182067" rx="2.87379663" ry="2.80727356"></ellipse>
                                    <ellipse id="Oval-Copy-2" cx="9.44247463" cy="14.0363678" rx="2.87379663" ry="2.80727356"></ellipse>
                                </g>
                            </g>
                        </g>
                    </g>
                </g>
            </g>
        </g>
    </g>
</svg>