<?xml version="1.0" encoding="UTF-8"?>
<svg width="487px" height="532px" viewBox="0 0 487 532" version="1.1" xmlns="http://www.w3.org/2000/svg" xmlns:xlink="http://www.w3.org/1999/xlink">
    <title>Group</title>
    <desc>Created with Sketch.</desc>
    <defs></defs>
    <g id="UI" stroke="none" stroke-width="1" fill="none" fill-rule="evenodd">
        <g id="Home" transform="translate(-953.000000, -161.000000)" fill="#FFFFFF" stroke="#2F80ED">
            <g id="Group" transform="translate(939.000000, 81.000000)">
                <path d="M210.771477,272.653889 L210.771477,494.51718 L419.641211,494.51718 L419.641211,272.653889 L210.771477,272.653889 Z M487.206318,527.339808 C487.206318,546.481667 471.603201,562.085535 452.462261,562.085535 L177.950427,562.085535 C158.840147,562.085535 143.206369,546.507245 143.206369,527.339808 L143.206369,239.831262 C143.206369,220.6946 158.814684,205.085535 177.950427,205.085535 L452.462261,205.085535 C454.569796,205.119297 454.569796,205.119297 456.748789,205.307192 C463.799305,206.09062 470.646669,208.55579 477.19145,215.100885 C483.73623,221.64598 486.201281,228.493673 486.984672,235.544527 C487.172557,237.723626 487.172557,237.723626 487.197408,238.824546 C487.203833,239.323629 487.206803,335.495383 487.206318,527.339808 Z" id="Icon" fill-rule="nonzero" transform="translate(315.206369, 383.585535) rotate(-30.000000) translate(-315.206369, -383.585535) "></path>
                <path d="M190.586812,174.912499 C195.874182,181.630145 195.874182,191.226782 190.586812,198.421665 L99.7822062,335.658757 C98.3435014,338.055322 98.8213384,340.457075 99.3043692,341.416739 C100.265237,343.813304 102.186973,345.255393 104.586545,346.215057 L150.230364,361.569675 C155.034703,363.489003 160.322073,361.569675 163.204676,357.731021 L272.743608,189.307454 C274.182313,187.388127 274.182313,184.986374 272.743608,183.067047 L272.260577,182.589809 L163.204676,14.6434802 C160.79991,11.2872511 155.034703,9.36792376 150.230364,10.8048256 L105.547413,26.6418697 C102.66481,27.6015334 100.265237,29.9980988 99.7822062,32.3998517 C99.3043692,34.319179 99.3043692,35.7560808 100.743074,37.19817 L190.586812,174.912499 Z" id="Shape" transform="translate(186.322637, 186.322637) rotate(-45.000000) translate(-186.322637, -186.322637) "></path>
            </g>
        </g>
    </g>
</svg>